<svg width="236" height="194" viewBox="0 0 236 194" fill="none" xmlns="http://www.w3.org/2000/svg">
<path d="M100.534 143.038C99.9677 142.14 99.2289 141.363 98.3606 140.752C97.4923 140.141 96.5116 139.708 95.475 139.478C94.9345 139.319 94.3701 139.259 93.8083 139.298C88.9292 139.275 89.8083 132.493 87.955 129.506C86.8006 127.648 85.2043 126.106 83.3086 125.015C81.413 123.924 79.2769 123.32 77.0908 123.256C75.0288 123.294 73.0146 123.884 71.2575 124.964C69.1267 126.222 67.2033 126.353 65.2342 124.658C61.685 121.603 58.1567 119.333 53.3175 119.033C48.7471 118.822 44.2795 120.431 40.8925 123.507C39.1146 125.083 37.6276 126.96 36.4992 129.052C35.3467 131.193 34.23 133.308 31.6925 131.366C27.8442 128.419 23.5675 127.234 18.8408 128.992C16.7631 129.812 14.8708 131.041 13.2758 132.605C11.6808 134.169 10.4153 136.037 9.55416 138.098C8.75022 140.127 8.20781 142.249 7.94 144.415C7.475 147.237 6.29833 147.839 3.9525 149.165C-0.0475017 151.424 -0.486668 156.566 0.818332 160.582C2.00666 164.237 5.15167 167.628 9.29833 167.118C11.4175 166.858 12.9017 166.068 14.6242 167.851C16.3467 169.633 17.6775 171.509 19.7808 172.951C27.4133 178.181 37.3983 177.32 45.4417 173.525C50.0167 171.367 53.7475 168.227 57.5742 164.998C61.9717 161.29 64.475 167.498 67.8242 169.597C69.778 170.844 72.0167 171.576 74.3303 171.721C76.644 171.867 78.9567 171.423 81.0517 170.43C83.0722 169.427 84.8388 167.979 86.2183 166.195C87.4817 164.573 88.0808 161.993 89.8733 160.877C91.54 159.835 93.6525 160.449 95.4525 159.627C97.4988 158.567 99.1723 156.908 100.248 154.87C102.325 151.292 102.866 146.632 100.534 143.038ZM93.9683 159.196C91.7417 159.728 89.7742 159.173 88.1242 161.211C86.4742 163.248 85.8117 165.647 83.7867 167.476C82.1542 168.983 80.1544 170.035 77.9875 170.526C75.8206 171.017 73.5628 170.93 71.44 170.274C69.3319 169.589 67.4139 168.419 65.84 166.858C64.27 165.303 63.3658 163.088 60.9108 162.831C58.6425 162.593 57.2075 164.118 55.6608 165.503C53.7985 167.175 51.8073 168.699 49.7058 170.059C45.8344 172.637 41.4969 174.435 36.9367 175.352C32.2562 176.291 27.3988 175.737 23.05 173.768C20.9751 172.795 19.0889 171.462 17.4783 169.832C15.9783 168.306 15.0083 166.113 12.6867 165.716C10.55 165.351 8.74667 166.655 6.55 165.905C5.55622 165.517 4.65286 164.929 3.89617 164.178C3.13948 163.426 2.54565 162.526 2.15166 161.535C0.608332 158.103 0.309999 152.628 3.85417 150.278C5.82667 148.969 7.77083 148.626 8.54667 146.058C9.25083 143.713 9.24667 141.288 10.1892 138.969C10.9782 136.915 12.1818 135.046 13.7248 133.477C15.2679 131.908 17.1175 130.674 19.1583 129.852C21.3732 128.991 23.7954 128.815 26.1117 129.345C28.6 129.956 29.9558 131.723 32.1117 132.775C34.13 133.761 35.7417 132.517 36.6575 130.795C37.7281 128.594 39.1393 126.575 40.8392 124.813C42.4384 123.198 44.3549 121.931 46.4679 121.092C48.5809 120.254 50.8447 119.862 53.1167 119.942C55.3765 120.065 57.5884 120.641 59.6208 121.637C61.9542 122.778 63.4167 124.764 65.5558 126.085C67.8892 127.524 69.8433 126.785 72.0208 125.575C73.9786 124.446 76.2523 123.99 78.4942 124.275C80.7216 124.603 82.8149 125.541 84.5425 126.985C86.2702 128.429 87.5648 130.322 88.2833 132.456C88.97 134.677 88.6792 137.206 90.5258 138.902C91.2336 139.606 92.1576 140.051 93.1492 140.167C93.3575 140.204 93.5694 140.218 93.7808 140.208C94.3941 140.331 95.015 140.413 95.6392 140.453C99.3225 141.453 101.347 145.408 101.175 149.03C100.987 152.989 98.0925 158.21 93.9683 159.196Z" fill="#B5E6D2"/>
<path d="M115.988 92.485C115.8 90.8183 115.615 89.1583 115.413 87.4975C114.718 81.8014 113.94 76.1161 113.079 70.4417C113.013 70.005 112.349 70.1917 112.413 70.625C113.433 77.37 114.333 84.1317 115.113 90.91C115.37 91.4535 115.663 91.9796 115.988 92.485Z" fill="black"/>
<path d="M117.612 97.4824C117.523 95.2673 116.869 93.1118 115.712 91.2207C115.036 90.1219 114.099 89.2072 112.984 88.558C111.868 87.9087 110.61 87.545 109.321 87.499C106.006 87.5382 103.268 90.1082 100.047 90.8915C98.1633 91.3499 96.0208 91.239 94.5208 92.4665C93.875 92.994 93.4108 93.954 93.87 94.6499C94.08 94.8933 94.3505 95.0771 94.6543 95.1824C94.9581 95.2878 95.2843 95.311 95.6 95.2499C96.23 95.1194 96.8741 95.0701 97.5166 95.1032C97.5878 95.107 97.6573 95.1264 97.7202 95.1599C97.7832 95.1935 97.838 95.2404 97.8808 95.2974C98.0375 95.569 97.6833 95.8407 97.3966 95.964C96.477 96.3719 95.6234 96.9148 94.8641 97.5749C94.6366 97.7254 94.4493 97.9293 94.3185 98.1688C94.1878 98.4083 94.1176 98.6762 94.1141 98.949C94.2075 99.5899 94.9566 99.929 95.6033 99.9115C96.25 99.894 96.8741 99.6432 97.52 99.6282C97.6146 99.6143 97.7112 99.6242 97.801 99.6571C97.8908 99.69 97.9709 99.7448 98.0341 99.8165C98.1625 100.013 98.0341 100.277 97.8858 100.457C97.317 100.962 96.7169 101.432 96.0891 101.862C95.5283 102.378 95.195 103.331 95.7266 103.877C96.2183 104.383 97.06 104.183 97.7133 103.915C98.6383 103.534 99.5283 103.082 100.412 102.609C100.384 102.859 100.362 103.115 100.348 103.368C100.161 105.443 100.55 107.53 101.471 109.399C103.447 113.042 107.927 113.827 111.71 113.301C113.668 113.08 115.51 112.262 116.987 110.958C118.383 109.599 119.266 107.799 119.487 105.863C119.56 105.317 119.598 104.766 119.599 104.215C119.612 101.824 118.921 99.4829 117.612 97.4824ZM117.146 109.419C116.091 110.759 114.619 111.708 112.963 112.117C111.022 112.638 108.985 112.695 107.017 112.283C105.398 111.989 103.932 111.138 102.872 109.877C101.846 108.457 101.284 106.755 101.262 105.003C101.12 102.983 101.469 100.958 102.28 99.1024C103.015 97.4347 104.282 96.0575 105.882 95.1857C107.684 94.2929 109.738 94.0467 111.699 94.4882C115.616 95.3299 118.116 98.8049 118.585 102.655C118.647 103.175 118.677 103.697 118.677 104.221C118.735 106.072 118.198 107.893 117.146 109.417V109.419Z" fill="#F97580"/>
<path d="M148.473 94.5067C177.094 94.5067 200.296 73.4838 200.296 47.5508C200.296 21.6178 177.094 0.594971 148.473 0.594971C119.853 0.594971 96.6508 21.6178 96.6508 47.5508C96.6508 73.4838 119.853 94.5067 148.473 94.5067Z" fill="#FA8DB8" fill-opacity="0.81"/>
<path d="M105.608 105.332C106.073 105.332 106.451 104.954 106.451 104.488C106.451 104.022 106.073 103.645 105.608 103.645C105.142 103.645 104.764 104.022 104.764 104.488C104.764 104.954 105.142 105.332 105.608 105.332Z" fill="black"/>
<path d="M141.953 115.183C141.298 115.716 140.694 116.309 140.148 116.953C138.705 118.764 137.145 120.479 135.478 122.087C133.795 123.701 131.664 124.77 129.363 125.153C126.871 125.358 124.382 124.716 122.3 123.331C120.191 122.028 118.525 120.143 116.645 118.528C115.547 117.583 112.99 117.845 112.202 119.061C111.51 120.349 111.307 121.845 111.633 123.271C112.575 129.363 117.271 134.604 123.09 136.642C126.03 137.599 129.148 137.883 132.212 137.475C135.277 137.067 138.211 135.977 140.799 134.285C142.731 133.038 144.429 131.463 145.818 129.631C143.568 125.125 142.253 120.211 141.953 115.183Z" fill="#B7E9D4"/>
<path d="M115.257 103.914C115.722 103.914 116.1 103.537 116.1 103.071C116.1 102.605 115.722 102.228 115.257 102.228C114.791 102.228 114.413 102.605 114.413 103.071C114.413 103.537 114.791 103.914 115.257 103.914Z" fill="black"/>
<path d="M114.927 106.167C114.9 107.334 114.585 108.477 114.01 109.493C113.727 109.912 113.353 110.261 112.916 110.515C112.479 110.77 111.991 110.923 111.488 110.963C110.584 110.955 109.709 110.643 109.006 110.076C108.037 109.259 107.287 108.214 106.821 107.036C109.55 107.534 112.365 107.232 114.927 106.167Z" fill="#F97580"/>
<path d="M103.899 103.179C104.054 102.773 104.353 102.439 104.74 102.241C105.126 102.043 105.573 101.995 105.993 102.107C106.423 102.213 106.607 101.549 106.176 101.44C105.58 101.284 104.948 101.357 104.403 101.644C103.859 101.932 103.442 102.413 103.235 102.993C103.077 103.41 103.742 103.587 103.902 103.177L103.899 103.179Z" fill="black"/>
<path d="M114.027 101.015C114.365 100.943 114.716 100.954 115.049 101.046C115.383 101.138 115.689 101.308 115.943 101.542C116.27 101.842 116.758 101.356 116.43 101.056C116.088 100.739 115.674 100.509 115.225 100.387C114.775 100.264 114.302 100.252 113.847 100.351C113.413 100.442 113.597 101.106 114.03 101.017L114.027 101.015Z" fill="black"/>
<path d="M111.352 147.787L140.928 149.775C140.308 146.979 139.413 144.108 137.406 142.068C135.166 139.787 131.864 138.88 128.679 138.608C124.101 138.28 119.504 138.885 115.167 140.385C113.566 140.844 112.065 141.596 110.738 142.601C110.077 143.108 109.534 143.751 109.145 144.487C108.755 145.223 108.529 146.034 108.481 146.865C108.491 147.249 108.574 147.627 108.726 147.98C109.588 147.796 110.472 147.731 111.352 147.787Z" fill="#F97580"/>
<path d="M83.7042 93.8C83.4467 93.1692 82.9608 90.2725 82.6408 89.6525C82.5429 89.48 82.3988 89.3382 82.2248 89.243C82.0507 89.1477 81.8536 89.1028 81.6555 89.1133C81.4574 89.1238 81.2661 89.1892 81.1031 89.3022C80.9401 89.4153 80.8118 89.5715 80.7325 89.7534C80.5358 90.1592 80.5225 92.7075 80.135 92.9284C79.5782 93.1838 78.9712 93.3114 78.3586 93.3016C77.746 93.2917 77.1434 93.1449 76.595 92.8717C75.1783 92.2884 73.9433 91.3067 72.4283 90.9459C71.9043 90.8103 71.3479 90.8869 70.88 91.1592C69.7892 91.8317 70.0467 93.0417 70.595 93.89C72.9692 97.5825 79.365 96.89 81.5167 100.719C81.9533 101.495 82.1542 102.38 82.5167 103.193C82.6682 103.612 82.9104 103.993 83.2259 104.309C83.5415 104.624 83.9228 104.866 84.3425 105.018C85.2025 105.242 88.29 105.022 83.7042 93.8Z" fill="#FCAFB7"/>
<path d="M187.187 72.3816C183.379 76.78 179.748 81.3211 176.294 86.005C172.834 90.6972 169.562 95.5191 166.479 100.471C163.396 105.422 160.514 110.482 157.833 115.649C155.159 120.804 152.689 126.054 150.425 131.399C148.164 136.736 146.116 142.156 144.282 147.657C144.051 148.35 143.823 149.044 143.6 149.741C143.467 150.152 144.121 150.329 144.253 149.919C146.031 144.405 148.025 138.966 150.234 133.602C152.44 128.248 154.856 122.986 157.484 117.816C160.095 112.664 162.907 107.617 165.919 102.676C168.931 97.7341 172.128 92.9177 175.51 88.2266C178.904 83.5216 182.482 78.9536 186.242 74.5225C186.716 73.9641 187.193 73.4086 187.672 72.8558C187.954 72.53 187.477 72.0525 187.192 72.3816H187.187Z" fill="black"/>
<path d="M151.75 115.031C151.542 113.458 151.064 111.698 149.598 111.17C148.399 110.742 146.773 111.263 146.002 110.253C145.509 109.608 145.49 108.451 144.688 108.324C144.447 108.315 144.211 108.392 144.021 108.54C143.83 108.689 143.699 108.9 143.649 109.136C143.563 109.611 143.577 110.098 143.689 110.568C143.781 111.184 143.828 111.806 143.832 112.429C143.732 112.513 143.656 112.622 143.613 112.745C143.569 112.868 143.558 113 143.582 113.128C143.615 113.281 143.687 113.422 143.791 113.538C143.524 117.096 141.961 120.433 139.398 122.914C138.981 123.308 138.717 123.836 138.652 124.406C138.587 124.975 138.725 125.55 139.041 126.028C139.53 126.759 140.08 127.346 140.776 127.208C141.456 127.005 142.058 126.598 142.498 126.041C143.492 124.985 144.392 123.846 145.189 122.636C145.536 122.028 145.992 121.488 146.533 121.044C147.605 121.031 148.656 120.746 149.588 120.216C150.225 119.839 150.766 119.318 151.166 118.694C151.566 118.071 151.814 117.362 151.891 116.625C151.937 116.089 151.889 115.55 151.75 115.031Z" fill="#FCAFB7"/>
<path d="M151.5 113.538C151.172 113.006 150.713 112.566 150.167 112.262C149.566 111.98 148.919 111.808 148.258 111.754C147.578 111.651 146.893 111.589 146.207 111.57C145.573 111.526 144.937 111.59 144.325 111.759C144.079 111.819 143.852 111.941 143.665 112.112C143.477 112.283 143.336 112.498 143.254 112.738C143.212 112.985 143.242 113.24 143.341 113.47C143.439 113.701 143.602 113.898 143.81 114.038C144.391 114.435 145.037 114.726 145.719 114.898L145.744 114.904C145.538 114.955 145.328 115.009 145.129 115.071C144.441 115.292 143.49 115.597 143.281 116.392C143.072 117.188 143.833 117.612 144.455 117.849C144.884 118.011 145.324 118.144 145.771 118.247C145.596 118.309 145.418 118.362 145.246 118.435C144.655 118.604 144.128 118.948 143.737 119.422C143.614 119.662 143.578 119.936 143.635 120.2C143.691 120.463 143.836 120.699 144.046 120.868C144.558 121.235 145.18 121.414 145.808 121.376C148.384 121.506 151.028 120.403 151.966 117.85C152.21 117.141 152.295 116.387 152.215 115.642C152.134 114.897 151.89 114.178 151.5 113.538ZM151.225 117.872C150.975 118.428 150.617 118.93 150.171 119.347C149.726 119.765 149.201 120.089 148.629 120.302C147.955 120.55 147.244 120.685 146.525 120.702C145.873 120.8 145.206 120.71 144.603 120.442C143.743 119.846 144.895 119.346 145.383 119.128C146.052 118.836 146.754 118.625 147.473 118.499C147.879 118.425 147.743 117.854 147.381 117.823C146.669 117.762 145.966 117.625 145.284 117.414C144.883 117.29 143.556 116.992 144.077 116.356C144.591 115.932 145.215 115.663 145.877 115.581C146.565 115.412 147.27 115.324 147.978 115.317C148.067 115.313 148.15 115.275 148.211 115.211C148.272 115.147 148.306 115.061 148.306 114.973C148.306 114.884 148.272 114.799 148.211 114.735C148.15 114.671 148.067 114.633 147.978 114.628C146.794 114.554 145.638 114.242 144.577 113.712C144.258 113.545 143.708 113.176 143.993 112.753C144.228 112.406 144.793 112.332 145.17 112.293C146.235 112.212 147.305 112.268 148.356 112.46C148.862 112.486 149.355 112.629 149.797 112.876C150.239 113.123 150.618 113.468 150.906 113.885C151.27 114.476 151.488 115.146 151.543 115.838C151.599 116.531 151.489 117.227 151.223 117.868L151.225 117.872Z" fill="black"/>
<path d="M130.217 78.0242C130.755 87.2531 131.019 96.4922 131.01 105.742C130.999 114.934 130.717 124.121 130.162 133.302C129.849 138.463 129.451 143.619 128.968 148.768C128.928 149.199 129.616 149.196 129.657 148.768C130.52 139.562 131.11 130.337 131.428 121.093C131.741 111.907 131.783 102.716 131.553 93.5217C131.423 88.355 131.208 83.1883 130.906 78.0217C130.88 77.5917 130.192 77.5892 130.217 78.0217V78.0242Z" fill="black"/>
<path d="M143.29 121.29C142.013 125.011 140.776 128.744 139.614 132.502C138.105 137.385 136.694 142.295 135.381 147.233C135.214 147.859 135.049 148.485 134.887 149.112C134.866 149.192 134.877 149.277 134.919 149.349C134.96 149.421 135.028 149.473 135.108 149.495C135.188 149.517 135.273 149.506 135.346 149.466C135.418 149.425 135.471 149.358 135.494 149.278C136.781 144.334 138.168 139.417 139.653 134.528C140.965 130.203 142.358 125.903 143.833 121.627C143.636 121.544 143.452 121.43 143.29 121.29Z" fill="black"/>
<path d="M163.288 73.4351C160.934 78.1695 158.676 82.9473 156.513 87.7684C154.37 92.5495 152.322 97.3698 150.371 102.229C149.134 105.308 147.954 108.406 146.794 111.513C147.002 111.559 147.211 111.604 147.42 111.644C148.324 109.216 149.252 106.797 150.205 104.386C152.144 99.4804 154.182 94.6128 156.318 89.7834C158.438 84.9967 160.652 80.2515 162.962 75.5476C163.257 74.9487 163.552 74.3506 163.849 73.7534C164.031 73.3892 163.471 73.0676 163.288 73.4351Z" fill="black"/>
<path d="M141.417 93.0108C141.108 95.9608 140.672 98.8975 140.229 101.829C139.626 105.817 138.979 109.796 138.307 113.772C137.577 118.121 136.827 122.467 136.057 126.809C135.341 130.856 134.613 134.902 133.872 138.946C133.31 142.018 132.739 145.089 132.159 148.159L131.997 149.014C131.913 149.446 132.576 149.631 132.658 149.197C133.218 146.266 133.765 143.333 134.301 140.397C135.032 136.414 135.752 132.43 136.461 128.444C137.231 124.101 137.986 119.756 138.725 115.409C139.411 111.358 140.079 107.304 140.704 103.242C141.184 100.127 141.652 97.0075 142.009 93.8758C142.042 93.5875 142.074 93.2991 142.104 93.0108C142.15 92.5725 141.463 92.575 141.418 93.0108H141.417Z" fill="black"/>
<path d="M226.005 69.2325C225.399 67.3484 224.316 65.653 222.862 64.3109C221.33 62.8984 219.671 61.9725 218.951 59.9C218.218 57.7925 218.951 55.5667 218.382 53.4109C217.838 51.3474 216.585 49.5412 214.842 48.3092C213.218 47.2407 211.334 46.6314 209.391 46.5459C207.448 46.4603 205.518 46.9017 203.806 47.8234C202.075 48.74 200.806 50.0892 198.727 50.205C196.463 50.3317 194.703 48.9442 192.751 48.0267C188.573 46.0426 183.945 45.201 179.336 45.5878C174.728 45.9745 170.304 47.5757 166.516 50.2284C163.033 52.7339 160.189 56.0251 158.216 59.835C157.336 61.5425 156.945 63.6642 155.649 65.1192C153.983 66.9942 151.425 66.78 149.308 67.825C147.429 68.7465 145.91 70.2667 144.99 72.1463C144.07 74.0259 143.8 76.1582 144.225 78.2075C144.57 80.1467 144.947 81.8425 144.179 83.7659C143.419 85.6675 141.714 87.0025 140.794 88.8392C139.9 90.5694 139.507 92.515 139.659 94.4567C139.811 96.3984 140.502 98.2591 141.654 99.8292C144.356 103.507 148.387 104.356 152.654 103.572C157.886 102.61 158.597 107.615 161.648 110.551C163.158 111.968 164.948 113.053 166.903 113.735C168.858 114.417 170.935 114.681 172.998 114.51C176.916 114.22 180.625 112.633 183.54 110C185.07 108.622 186.375 107.014 187.41 105.233C188.424 103.503 188.934 101.483 190.993 100.726C193.183 99.915 195.41 101.309 197.639 101.349C199.93 101.358 202.174 100.706 204.103 99.4709C206.099 98.1903 207.774 96.4696 209.002 94.4409C210.246 92.435 210.698 90.2467 211.63 88.125C213.797 83.1967 219.4 85.2817 222.84 81.8884C224.437 80.2453 225.571 78.2092 226.126 75.9866C226.682 73.7639 226.64 71.4338 226.005 69.2325ZM225.127 75.9725C224.601 78.0305 223.524 79.9065 222.012 81.3992C220.279 83.0242 218.679 83.1575 216.455 83.4542C211.492 84.1209 211.019 88.1975 209.275 91.9875C207.641 95.5359 204.749 98.7759 200.934 99.9692C199.003 100.557 196.942 100.566 195.006 99.9959C192.909 99.4317 190.839 99.2617 189.071 100.799C187.571 102.099 186.977 104.318 185.874 105.94C184.674 107.726 183.167 109.284 181.423 110.544C177.976 113.027 173.699 114.071 169.496 113.456C167.663 113.159 165.91 112.49 164.345 111.49C162.781 110.49 161.438 109.18 160.399 107.64C159.283 105.973 158.697 104.122 156.816 103.136C154.821 102.092 153.099 102.679 151.028 102.974C149.167 103.212 147.278 102.88 145.609 102.023C143.94 101.166 142.569 99.8234 141.678 98.1725C139.607 94.4392 140.542 90.2467 143.066 87.0059C144.221 85.5209 145.208 84.2667 145.506 82.3392C145.86 80.0434 144.83 77.93 144.962 75.6484C145.227 71.0467 148.672 68.7859 152.716 67.7659C157.274 66.6167 157.687 62.4267 159.799 58.8925C161.748 55.6291 164.378 52.8251 167.511 50.6725C171.102 48.2716 175.249 46.8311 179.555 46.4884C183.861 46.1457 188.183 46.9123 192.109 48.715C194.186 49.6584 195.968 51.1175 198.352 51.1275C201.067 51.1392 202.559 49.3659 204.859 48.33C208.913 46.5042 214.119 47.5192 216.537 51.425C217.825 53.5084 217.665 55.4367 217.685 57.7534C217.7 58.8962 217.971 60.0212 218.478 61.0453C218.986 62.0693 219.717 62.9663 220.617 63.67C224.442 66.9167 226.577 70.8092 225.127 75.9725Z" fill="#B5E6D2"/>
<path d="M198.471 119.979C195.97 124.283 194.797 129.23 195.099 134.199C192.529 130.768 189.617 127.606 186.407 124.763C185.746 124.18 184.768 125.149 185.433 125.738C189.226 129.085 192.596 132.883 195.467 137.048C195.555 137.188 195.689 137.291 195.845 137.341C196.002 137.391 196.171 137.383 196.323 137.319C196.474 137.255 196.598 137.139 196.672 136.992C196.746 136.846 196.765 136.677 196.726 136.517C195.832 131.056 196.87 125.454 199.66 120.674C199.744 120.517 199.764 120.333 199.716 120.162C199.667 119.99 199.554 119.844 199.4 119.754C199.246 119.664 199.063 119.637 198.89 119.679C198.717 119.721 198.566 119.829 198.471 119.979Z" fill="black"/>
<path d="M219.652 114.592C219.476 114.548 219.289 114.573 219.132 114.663C218.974 114.752 218.857 114.899 218.805 115.073L216.791 120.407C216.175 119.669 215.688 118.834 215.348 117.936C215.296 117.762 215.178 117.616 215.021 117.526C214.863 117.437 214.677 117.411 214.501 117.455C214.325 117.505 214.177 117.622 214.087 117.78C213.997 117.939 213.973 118.126 214.02 118.302C214.559 119.769 215.426 121.094 216.553 122.176C216.64 122.258 216.746 122.317 216.861 122.347C216.977 122.377 217.098 122.376 217.214 122.346C217.329 122.315 217.435 122.256 217.521 122.173C217.607 122.09 217.67 121.986 217.704 121.872L220.133 115.44C220.18 115.264 220.156 115.076 220.066 114.917C219.976 114.759 219.827 114.642 219.652 114.592Z" fill="black"/>
<path d="M209.452 144.906C208.815 146.169 208.347 147.512 208.06 148.897L205.085 143.314C204.668 142.532 203.479 143.231 203.896 144.009L207.828 151.389C207.907 151.516 208.025 151.614 208.164 151.668C208.302 151.723 208.455 151.732 208.599 151.693C208.743 151.654 208.871 151.569 208.963 151.452C209.055 151.335 209.108 151.191 209.112 151.042C209.258 149.145 209.778 147.295 210.642 145.6C211.042 144.812 209.855 144.115 209.452 144.906Z" fill="black"/>
<path d="M207.158 80.4341C205.883 81.6117 204.886 83.0569 204.237 84.6658C203.404 83.5696 202.71 82.3754 202.168 81.1099C202.076 80.9528 201.925 80.8384 201.749 80.7917C201.573 80.7449 201.385 80.7694 201.227 80.8599C201.072 80.955 200.96 81.1058 200.913 81.2812C200.867 81.4567 200.889 81.6433 200.977 81.8024C201.723 83.5305 202.74 85.1285 203.989 86.5366C204.075 86.6202 204.181 86.6802 204.297 86.7106C204.413 86.7411 204.535 86.7411 204.65 86.7105C204.766 86.68 204.872 86.62 204.958 86.5364C205.044 86.4527 205.107 86.3483 205.14 86.2333C205.67 84.3782 206.705 82.7067 208.129 81.4049C208.785 80.8066 207.809 79.8333 207.158 80.4341Z" fill="black"/>
<path d="M168.41 136.66C168.28 136.532 168.105 136.46 167.923 136.46C167.741 136.46 167.566 136.532 167.436 136.66C166.574 137.703 165.949 138.921 165.602 140.228C164.955 139.672 164.432 138.985 164.069 138.212C163.976 138.055 163.826 137.941 163.65 137.894C163.473 137.847 163.286 137.871 163.127 137.962C162.972 138.056 162.86 138.207 162.813 138.382C162.766 138.558 162.79 138.744 162.878 138.903C163.495 140.192 164.48 141.27 165.708 142C165.8 142.052 165.902 142.083 166.007 142.09C166.112 142.097 166.217 142.08 166.314 142.041C166.412 142.001 166.499 141.94 166.569 141.861C166.64 141.783 166.691 141.69 166.72 141.588C166.91 140.14 167.494 138.772 168.41 137.634C168.534 137.503 168.604 137.328 168.604 137.147C168.604 136.966 168.534 136.792 168.41 136.66Z" fill="black"/>
<path d="M180.417 34.2783C180.241 34.234 180.054 34.2592 179.897 34.3488C179.739 34.4383 179.621 34.5853 179.569 34.7592L177.556 40.0925C176.94 39.3555 176.452 38.5203 176.113 37.6217C176.06 37.4484 175.943 37.3019 175.785 37.2124C175.628 37.123 175.442 37.0974 175.266 37.1408C175.09 37.1906 174.942 37.3075 174.852 37.466C174.762 37.6246 174.738 37.8122 174.785 37.9883C175.324 39.455 176.19 40.7796 177.318 41.8617C177.404 41.9441 177.51 42.003 177.626 42.0327C177.741 42.0625 177.863 42.0621 177.978 42.0316C178.093 42.0011 178.199 41.9415 178.285 41.8585C178.371 41.7755 178.434 41.6719 178.468 41.5575C179.278 39.4142 180.088 37.2706 180.898 35.1267C180.945 34.9504 180.921 34.7626 180.831 34.6039C180.741 34.4451 180.592 34.3281 180.417 34.2783Z" fill="black"/>
<path d="M169.027 19.8883C168.852 19.8438 168.665 19.869 168.508 19.9586C168.35 20.0482 168.233 20.1953 168.181 20.3692L164.153 31.0358C162.681 29.4604 161.535 27.6093 160.782 25.5892C160.729 25.4158 160.612 25.2692 160.454 25.1797C160.297 25.0902 160.111 25.0647 159.935 25.1083C159.76 25.1582 159.611 25.2748 159.521 25.4332C159.431 25.5916 159.407 25.779 159.454 25.955C160.403 28.5398 161.933 30.8717 163.928 32.77C164.014 32.8524 164.12 32.9113 164.236 32.9411C164.351 32.9708 164.473 32.9704 164.588 32.9399C164.703 32.9094 164.809 32.8498 164.895 32.7668C164.981 32.6838 165.044 32.5802 165.078 32.4658C166.555 28.5558 168.032 24.6458 169.509 20.7358C169.556 20.5596 169.532 20.372 169.442 20.2135C169.352 20.0549 169.203 19.9382 169.027 19.8883Z" fill="black"/>
<path d="M158.172 153.239C157.772 152.822 157.336 152.441 156.869 152.1C156.822 152.038 156.758 151.991 156.685 151.965C155.173 150.907 153.402 150.278 151.561 150.145L147.679 149.884L138.316 149.255L126.89 148.487L116.822 147.811C115.062 147.692 113.302 147.574 111.541 147.456C109.456 147.303 107.374 147.795 105.577 148.864C103.781 149.933 102.356 151.528 101.495 153.433C100.51 155.683 100.566 158.254 100.403 160.663L99.6708 171.565C99.4897 174.252 99.3092 176.938 99.1292 179.624C98.9907 181.212 99.2132 182.811 99.78 184.302C100.726 186.685 102.536 188.625 104.848 189.734C106.76 190.637 108.758 190.698 110.811 190.837L119.132 191.396L130.411 192.154L141.085 192.872L147.853 193.326C148.399 193.363 148.947 193.409 149.495 193.404C152.025 193.361 154.446 192.369 156.279 190.625C158.112 188.881 159.223 186.512 159.392 183.987C159.438 183.344 159.476 182.701 159.522 182.058L160.197 172.012L160.847 162.346C160.893 161.655 160.964 160.958 160.97 160.262C160.979 157.648 159.976 155.131 158.172 153.239ZM113.897 148.302L122.246 148.863L133.311 149.607L143.879 150.317L150.622 150.771L151.561 150.834C153.137 150.953 154.659 151.467 155.984 152.328C149.466 157.895 142.585 163.024 135.387 167.679C133.387 168.973 131.359 170.23 129.303 171.449C122.975 166.011 116.909 160.289 111.104 154.282C109.493 152.616 107.905 150.925 106.341 149.211C106.994 148.859 107.686 148.587 108.403 148.399C110.218 148.075 112.072 148.042 113.897 148.302ZM100.063 175.969L100.786 165.219L101.323 157.245C101.39 155.728 101.801 154.247 102.524 152.912C103.299 151.547 104.4 150.395 105.728 149.559C110.289 154.544 115.036 159.35 119.969 163.976C114.378 167.754 108.984 171.802 103.786 176.122C102.453 177.232 101.136 178.367 99.8292 179.511C99.8292 179.451 99.8292 179.391 99.8375 179.33C99.9136 178.209 99.9889 177.089 100.063 175.97V175.969ZM155.167 190.682C153.33 192.131 151.022 192.848 148.687 192.694C147.304 192.607 145.922 192.507 144.538 192.415L135.224 191.789L123.989 191.034L114.072 190.367L108.728 190.008C107.287 189.93 105.881 189.531 104.613 188.842C103.501 188.22 102.526 187.382 101.745 186.376C100.964 185.37 100.393 184.217 100.066 182.986C99.8604 182.149 99.768 181.288 99.7908 180.427C99.8238 180.413 99.8547 180.395 99.8825 180.373C104.952 175.905 110.243 171.695 115.735 167.759C117.282 166.651 118.844 165.566 120.421 164.503C120.441 164.487 120.46 164.468 120.477 164.447C121.527 165.428 122.573 166.412 123.643 167.377C125.413 168.979 127.205 170.557 129.018 172.11C129.056 172.145 129.101 172.17 129.151 172.185C129.2 172.199 129.252 172.202 129.302 172.193C129.365 172.197 129.428 172.181 129.482 172.148C132.607 170.292 135.677 168.347 138.692 166.315L138.697 166.322C144.258 170.114 149.188 174.738 154.168 179.244C155.685 180.616 157.211 181.977 158.746 183.327C158.728 183.571 158.715 183.814 158.697 184.057C158.593 185.344 158.226 186.596 157.619 187.735C157.011 188.875 156.177 189.877 155.167 190.682ZM160.257 160.854C160.124 162.975 159.972 165.094 159.829 167.215L159.092 178.193C158.996 179.612 158.901 181.03 158.805 182.447C153.685 177.942 148.772 173.184 143.422 168.947C142.083 167.887 140.71 166.87 139.304 165.897C143.341 163.16 147.272 160.276 151.098 157.243C152.947 155.777 154.767 154.275 156.558 152.739C157.808 153.672 158.801 154.904 159.448 156.322C160.094 157.741 160.372 159.3 160.257 160.854Z" fill="black"/>
<path d="M55.5533 188.461L65.2867 187.396C65.4676 187.391 65.6398 187.317 65.7678 187.189C65.8958 187.061 65.97 186.888 65.975 186.707C65.9739 186.525 65.901 186.351 65.7722 186.222C65.6433 186.093 65.4689 186.02 65.2867 186.019L55.5533 187.083C55.3724 187.089 55.2004 187.163 55.0724 187.291C54.9444 187.419 54.8702 187.591 54.865 187.772C54.8661 187.954 54.9389 188.128 55.0678 188.257C55.1966 188.386 55.371 188.46 55.5533 188.461Z" fill="black"/>
<path d="M34.5175 153.383L51.1134 152.121C51.9917 152.054 51.9992 150.677 51.1134 150.744L34.5175 152.006C33.64 152.072 33.6325 153.45 34.5175 153.383Z" fill="black"/>
<path d="M51.5258 138.11L67.7233 137.848C67.9019 137.842 68.071 137.767 68.1951 137.638C68.3192 137.51 68.3885 137.338 68.3885 137.16C68.3885 136.981 68.3192 136.809 68.1951 136.681C68.071 136.552 67.9019 136.477 67.7233 136.471L51.5258 136.733C51.3491 136.742 51.1826 136.818 51.0606 136.947C50.9386 137.075 50.8706 137.245 50.8706 137.422C50.8706 137.599 50.9386 137.769 51.0606 137.897C51.1826 138.025 51.3491 138.101 51.5258 138.11Z" fill="black"/>
<path d="M27.6383 97.1467L34.9258 96.7417C35.8067 96.6934 35.8125 95.3159 34.9258 95.3651L27.6383 95.7701C26.7567 95.8184 26.7508 97.1959 27.6383 97.1467Z" fill="black"/>
<path d="M54.7717 69.2892L67.3225 68.075C67.5035 68.0702 67.6758 67.9961 67.8038 67.8681C67.9319 67.74 68.006 67.5677 68.0108 67.3867C68.0095 67.2045 67.9366 67.0302 67.8078 66.9014C67.679 66.7726 67.5046 66.6997 67.3225 66.6984L54.7717 67.9117C54.5906 67.9165 54.4182 67.9906 54.29 68.1186C54.1618 68.2466 54.0875 68.4189 54.0825 68.6C54.0838 68.7824 54.1568 68.9569 54.2858 69.0859C54.4148 69.2148 54.5893 69.2879 54.7717 69.2892Z" fill="black"/>
<path d="M126.545 136.738C126.128 132.825 125.274 128.972 124 125.25C122.64 121.091 119.75 117.009 115.488 116.033C113.993 115.764 112.457 115.806 110.978 116.157C109.5 116.508 108.109 117.16 106.894 118.073C106.944 118.104 106.995 118.131 107.044 118.163C107.861 118.674 108.509 119.415 108.904 120.293C109.701 122.168 108.988 123.877 107.843 125.368C106.87 126.633 105.457 127.487 103.884 127.76C102.134 128.066 100.35 128.335 98.5825 128.464C97.4869 130.321 96.2488 132.089 94.8792 133.754C93.5017 135.364 91.9092 136.795 90.68 138.522C90.0183 139.352 89.5268 140.305 89.2336 141.326C88.9403 142.346 88.851 143.415 88.9708 144.47C89.4575 147.172 91.9658 149.179 94.6458 149.773C97.3258 150.366 100.129 149.787 102.729 148.91C105.329 148.033 107.837 146.86 110.505 146.217C114.943 145.146 119.701 145.573 123.76 142.895C124.696 142.178 125.44 141.24 125.926 140.166C126.411 139.092 126.624 137.914 126.545 136.738Z" fill="#B7E9D4"/>
<path d="M108.296 120.405C107.928 119.589 107.327 118.901 106.568 118.427C104.027 116.77 100.907 117.114 98.235 115.981C95.5192 114.828 93.6283 112.292 92.3517 109.632C91.075 106.973 90.2817 104.102 88.99 101.45C88.563 100.534 88.0187 99.6784 87.3708 98.9033C86.9183 99.1792 86.4758 99.4742 86.0283 99.76C87.4017 105.703 85.1117 105.814 84.3417 105.613C83.8521 105.437 83.4075 105.155 83.0394 104.787C82.6712 104.419 82.3886 103.974 82.2117 103.485C82.085 103.202 81.9758 102.912 81.8708 102.62C80.2166 103.857 78.6416 105.196 77.155 106.629C77.4847 108.732 78.03 110.796 78.7825 112.788C80.4358 117.643 82.3742 122.851 86.6792 125.639C89.5125 127.473 93.0025 127.982 96.3767 128.067C98.813 128.061 101.243 127.817 103.632 127.338C105.092 127.085 106.404 126.292 107.308 125.117C108.375 123.731 109.036 122.146 108.296 120.405Z" fill="#B7E9D4"/>
<path d="M125.005 89.175C125.228 92.44 125.365 95.7108 125.483 98.9817C125.633 103.134 125.746 107.288 125.822 111.442C125.911 115.919 125.972 120.395 126.004 124.872C126.034 129.094 126.034 133.319 126.004 137.548C125.976 140.949 125.928 144.351 125.802 147.751C125.79 148.094 125.776 148.436 125.762 148.778C125.742 149.222 126.428 149.221 126.45 148.778C126.59 145.509 126.644 142.236 126.679 138.963C126.723 134.808 126.731 130.653 126.702 126.498C126.678 122.021 126.624 117.544 126.542 113.068C126.464 108.846 126.357 104.622 126.22 100.397C126.106 96.9967 125.97 93.5967 125.76 90.2017C125.738 89.8589 125.716 89.5167 125.692 89.175C125.662 88.735 124.973 88.7317 125.004 89.175H125.005Z" fill="black"/>
<path d="M115.343 39.8533C115.227 39.8603 115.117 39.9117 115.037 39.9969C114.956 40.082 114.912 40.1946 114.912 40.3116C114.912 40.4286 114.956 40.5412 115.037 40.6264C115.117 40.7115 115.227 40.7629 115.343 40.7699C115.46 40.7629 115.57 40.7115 115.65 40.6264C115.73 40.5412 115.775 40.4286 115.775 40.3116C115.775 40.1946 115.73 40.082 115.65 39.9969C115.57 39.9117 115.46 39.8603 115.343 39.8533Z" fill="black"/>
<path d="M121.281 50.65C121.164 50.6571 121.054 50.7084 120.974 50.7936C120.894 50.8788 120.849 50.9914 120.849 51.1084C120.849 51.2254 120.894 51.3379 120.974 51.4231C121.054 51.5083 121.164 51.5597 121.281 51.5667C121.398 51.5597 121.507 51.5083 121.588 51.4231C121.668 51.3379 121.712 51.2254 121.712 51.1084C121.712 50.9914 121.668 50.8788 121.588 50.7936C121.507 50.7084 121.398 50.6571 121.281 50.65Z" fill="black"/>
<path d="M138.285 39.0441C138.168 39.0511 138.059 39.1025 137.978 39.1876C137.898 39.2728 137.853 39.3854 137.853 39.5024C137.853 39.6194 137.898 39.732 137.978 39.8172C138.059 39.9023 138.168 39.9537 138.285 39.9607C138.402 39.9537 138.511 39.9023 138.592 39.8172C138.672 39.732 138.717 39.6194 138.717 39.5024C138.717 39.3854 138.672 39.2728 138.592 39.1876C138.511 39.1025 138.402 39.0511 138.285 39.0441Z" fill="black"/>
<path d="M142.873 59.2867C142.757 59.2938 142.647 59.3451 142.567 59.4303C142.486 59.5155 142.442 59.6281 142.442 59.7451C142.442 59.8621 142.486 59.9746 142.567 60.0598C142.647 60.145 142.757 60.1964 142.873 60.2034C142.99 60.1964 143.1 60.145 143.18 60.0598C143.26 59.9746 143.305 59.8621 143.305 59.7451C143.305 59.6281 143.26 59.5155 143.18 59.4303C143.1 59.3451 142.99 59.2938 142.873 59.2867Z" fill="black"/>
<path d="M149.352 48.2208C149.235 48.2279 149.125 48.2792 149.045 48.3644C148.965 48.4496 148.92 48.5622 148.92 48.6792C148.92 48.7961 148.965 48.9087 149.045 48.9939C149.125 49.0791 149.235 49.1304 149.352 49.1375C149.468 49.1304 149.578 49.0791 149.658 48.9939C149.739 48.9087 149.783 48.7961 149.783 48.6792C149.783 48.5622 149.739 48.4496 149.658 48.3644C149.578 48.2792 149.468 48.2279 149.352 48.2208Z" fill="black"/>
<path d="M160.417 42.5525C160.3 42.5595 160.19 42.6109 160.11 42.6961C160.03 42.7813 159.985 42.8938 159.985 43.0108C159.985 43.1278 160.03 43.2404 160.11 43.3256C160.19 43.4108 160.3 43.4621 160.417 43.4692C160.533 43.4621 160.643 43.4108 160.723 43.3256C160.804 43.2404 160.848 43.1278 160.848 43.0108C160.848 42.8938 160.804 42.7813 160.723 42.6961C160.643 42.6109 160.533 42.5595 160.417 42.5525Z" fill="black"/>
<path d="M147.192 25.5483C147.076 25.5554 146.966 25.6067 146.886 25.6919C146.806 25.7771 146.761 25.8897 146.761 26.0067C146.761 26.1237 146.806 26.2362 146.886 26.3214C146.966 26.4066 147.076 26.458 147.192 26.465C147.309 26.458 147.419 26.4066 147.499 26.3214C147.579 26.2362 147.624 26.1237 147.624 26.0067C147.624 25.8897 147.579 25.7771 147.499 25.6919C147.419 25.6067 147.309 25.5554 147.192 25.5483Z" fill="black"/>
<path d="M131.538 29.3275C131.421 29.3346 131.311 29.3859 131.231 29.4711C131.151 29.5563 131.106 29.6689 131.106 29.7858C131.106 29.9028 131.151 30.0154 131.231 30.1006C131.311 30.1858 131.421 30.2371 131.538 30.2442C131.654 30.2371 131.764 30.1858 131.844 30.1006C131.924 30.0154 131.969 29.9028 131.969 29.7858C131.969 29.6689 131.924 29.5563 131.844 29.4711C131.764 29.3859 131.654 29.3346 131.538 29.3275Z" fill="black"/>
<path d="M132.617 19.6108C132.501 19.6179 132.391 19.6692 132.311 19.7544C132.231 19.8396 132.186 19.9522 132.186 20.0692C132.186 20.1862 132.231 20.2987 132.311 20.3839C132.391 20.4691 132.501 20.5205 132.617 20.5275C132.734 20.5205 132.844 20.4691 132.924 20.3839C133.004 20.2987 133.049 20.1862 133.049 20.0692C133.049 19.9522 133.004 19.8396 132.924 19.7544C132.844 19.6692 132.734 19.6179 132.617 19.6108Z" fill="black"/>
<path d="M171.484 56.5875C171.367 56.5946 171.258 56.6459 171.178 56.7311C171.097 56.8163 171.053 56.9289 171.053 57.0459C171.053 57.1628 171.097 57.2754 171.178 57.3606C171.258 57.4458 171.367 57.4971 171.484 57.5042C171.601 57.4971 171.711 57.4458 171.791 57.3606C171.871 57.2754 171.916 57.1628 171.916 57.0459C171.916 56.9289 171.871 56.8163 171.791 56.7311C171.711 56.6459 171.601 56.5946 171.484 56.5875Z" fill="black"/>
<path d="M167.435 73.3225C167.318 73.3296 167.209 73.3809 167.128 73.4661C167.048 73.5513 167.003 73.6639 167.003 73.7808C167.003 73.8978 167.048 74.0104 167.128 74.0956C167.209 74.1808 167.318 74.2321 167.435 74.2392C167.552 74.2321 167.661 74.1808 167.742 74.0956C167.822 74.0104 167.867 73.8978 167.867 73.7808C167.867 73.6639 167.822 73.5513 167.742 73.4661C167.661 73.3809 167.552 73.3296 167.435 73.3225Z" fill="black"/>
<path d="M154.21 73.0525C154.093 73.0595 153.984 73.1109 153.903 73.1961C153.823 73.2813 153.778 73.3938 153.778 73.5108C153.778 73.6278 153.823 73.7404 153.903 73.8256C153.984 73.9108 154.093 73.9621 154.21 73.9692C154.327 73.9621 154.436 73.9108 154.517 73.8256C154.597 73.7404 154.642 73.6278 154.642 73.5108C154.642 73.3938 154.597 73.2813 154.517 73.1961C154.436 73.1109 154.327 73.0595 154.21 73.0525Z" fill="black"/>
<path d="M131 67.3842C130.883 67.3912 130.774 67.4426 130.693 67.5277C130.613 67.6129 130.568 67.7255 130.568 67.8425C130.568 67.9595 130.613 68.0721 130.693 68.1573C130.774 68.2424 130.883 68.2938 131 68.3008C131.117 68.2938 131.226 68.2424 131.307 68.1573C131.387 68.0721 131.432 67.9595 131.432 67.8425C131.432 67.7255 131.387 67.6129 131.307 67.5277C131.226 67.4426 131.117 67.3912 131 67.3842Z" fill="black"/>
<path d="M111.564 71.1666C111.447 71.1737 111.338 71.225 111.258 71.3102C111.177 71.3954 111.133 71.508 111.133 71.625C111.133 71.742 111.177 71.8545 111.258 71.9397C111.338 72.0249 111.447 72.0762 111.564 72.0833C111.681 72.0762 111.791 72.0249 111.871 71.9397C111.951 71.8545 111.996 71.742 111.996 71.625C111.996 71.508 111.951 71.3954 111.871 71.3102C111.791 71.225 111.681 71.1737 111.564 71.1666Z" fill="black"/>
<path d="M109.405 61.7158C109.288 61.7229 109.179 61.7742 109.098 61.8594C109.018 61.9446 108.973 62.0572 108.973 62.1742C108.973 62.2912 109.018 62.4037 109.098 62.4889C109.179 62.5741 109.288 62.6255 109.405 62.6325C109.522 62.6255 109.631 62.5741 109.712 62.4889C109.792 62.4037 109.837 62.2912 109.837 62.1742C109.837 62.0572 109.792 61.9446 109.712 61.8594C109.631 61.7742 109.522 61.7229 109.405 61.7158Z" fill="black"/>
<path d="M81.8742 60.6366C81.7574 60.6436 81.6477 60.695 81.5675 60.7802C81.4873 60.8654 81.4426 60.9779 81.4426 61.0949C81.4426 61.2119 81.4873 61.3245 81.5675 61.4097C81.6477 61.4949 81.7574 61.5462 81.8742 61.5533C81.9909 61.5462 82.1006 61.4949 82.1808 61.4097C82.261 61.3245 82.3057 61.2119 82.3057 61.0949C82.3057 60.9779 82.261 60.8654 82.1808 60.7802C82.1006 60.695 81.9909 60.6436 81.8742 60.6366Z" fill="black"/>
<path d="M73.5075 35.8051C73.3907 35.8121 73.281 35.8635 73.2008 35.9486C73.1206 36.0338 73.076 36.1464 73.076 36.2634C73.076 36.3804 73.1206 36.493 73.2008 36.5781C73.281 36.6633 73.3907 36.7147 73.5075 36.7217C73.6243 36.7147 73.734 36.6633 73.8142 36.5781C73.8944 36.493 73.939 36.3804 73.939 36.2634C73.939 36.1464 73.8944 36.0338 73.8142 35.9486C73.734 35.8635 73.6243 35.8121 73.5075 35.8051Z" fill="black"/>
<path d="M55.9634 49.0309C55.8466 49.0379 55.7369 49.0893 55.6567 49.1745C55.5765 49.2596 55.5318 49.3722 55.5318 49.4892C55.5318 49.6062 55.5765 49.7188 55.6567 49.804C55.7369 49.8891 55.8466 49.9405 55.9634 49.9475C56.0801 49.9405 56.1898 49.8891 56.27 49.804C56.3502 49.7188 56.3949 49.6062 56.3949 49.4892C56.3949 49.3722 56.3502 49.2596 56.27 49.1745C56.1898 49.0893 56.0801 49.0379 55.9634 49.0309Z" fill="black"/>
<path d="M28.4325 62.7958C28.3157 62.8028 28.2061 62.8542 28.1259 62.9394C28.0457 63.0245 28.001 63.1371 28.001 63.2541C28.001 63.3711 28.0457 63.4837 28.1259 63.5689C28.2061 63.654 28.3157 63.7054 28.4325 63.7124C28.5493 63.7054 28.659 63.654 28.7392 63.5689C28.8194 63.4837 28.864 63.3711 28.864 63.2541C28.864 63.1371 28.8194 63.0245 28.7392 62.9394C28.659 62.8542 28.5493 62.8028 28.4325 62.7958Z" fill="black"/>
<path d="M25.7333 36.885C25.6166 36.8921 25.5069 36.9434 25.4267 37.0286C25.3465 37.1138 25.3018 37.2264 25.3018 37.3433C25.3018 37.4603 25.3465 37.5729 25.4267 37.6581C25.5069 37.7433 25.6166 37.7946 25.7333 37.8017C25.8501 37.7946 25.9598 37.7433 26.04 37.6581C26.1202 37.5729 26.1649 37.4603 26.1649 37.3433C26.1649 37.2264 26.1202 37.1138 26.04 37.0286C25.9598 36.9434 25.8501 36.8921 25.7333 36.885Z" fill="black"/>
<path d="M44.6275 38.7742C44.5107 38.7812 44.401 38.8326 44.3209 38.9178C44.2407 39.0029 44.196 39.1155 44.196 39.2325C44.196 39.3495 44.2407 39.4621 44.3209 39.5473C44.401 39.6324 44.5107 39.6838 44.6275 39.6908C44.7443 39.6838 44.854 39.6324 44.9342 39.5473C45.0144 39.4621 45.059 39.3495 45.059 39.2325C45.059 39.1155 45.0144 39.0029 44.9342 38.9178C44.854 38.8326 44.7443 38.7812 44.6275 38.7742Z" fill="black"/>
<path d="M58.9325 15.2917C58.8157 15.2988 58.706 15.3502 58.6258 15.4353C58.5457 15.5205 58.501 15.6331 58.501 15.7501C58.501 15.8671 58.5457 15.9797 58.6258 16.0648C58.706 16.15 58.8157 16.2014 58.9325 16.2084C59.0493 16.2014 59.159 16.15 59.2392 16.0648C59.3194 15.9797 59.364 15.8671 59.364 15.7501C59.364 15.6331 59.3194 15.5205 59.2392 15.4353C59.159 15.3502 59.0493 15.2988 58.9325 15.2917Z" fill="black"/>
<path d="M17.6367 52.8092C17.5199 52.8162 17.4102 52.8676 17.33 52.9528C17.2498 53.038 17.2052 53.1505 17.2052 53.2675C17.2052 53.3845 17.2498 53.4971 17.33 53.5823C17.4102 53.6675 17.5199 53.7188 17.6367 53.7259C17.7535 53.7188 17.8631 53.6675 17.9433 53.5823C18.0235 53.4971 18.0682 53.3845 18.0682 53.2675C18.0682 53.1505 18.0235 53.038 17.9433 52.9528C17.8631 52.8676 17.7535 52.8162 17.6367 52.8092Z" fill="black"/>
<path d="M92.9408 80.88C92.8241 80.8871 92.7144 80.9384 92.6342 81.0236C92.554 81.1088 92.5093 81.2213 92.5093 81.3383C92.5093 81.4553 92.554 81.5679 92.6342 81.6531C92.7144 81.7383 92.8241 81.7896 92.9408 81.7967C93.0576 81.7896 93.1673 81.7383 93.2475 81.6531C93.3277 81.5679 93.3723 81.4553 93.3723 81.3383C93.3723 81.2213 93.3277 81.1088 93.2475 81.0236C93.1673 80.9384 93.0576 80.8871 92.9408 80.88Z" fill="black"/>
<path d="M188.488 83.0391C188.372 83.0461 188.262 83.0975 188.182 83.1826C188.101 83.2678 188.057 83.3804 188.057 83.4974C188.057 83.6144 188.101 83.727 188.182 83.8121C188.262 83.8973 188.372 83.9487 188.488 83.9557C188.605 83.9487 188.715 83.8973 188.795 83.8121C188.875 83.727 188.92 83.6144 188.92 83.4974C188.92 83.3804 188.875 83.2678 188.795 83.1826C188.715 83.0975 188.605 83.0461 188.488 83.0391Z" fill="black"/>
<path d="M207.382 58.75C207.265 58.757 207.155 58.8084 207.075 58.8936C206.995 58.9788 206.95 59.0913 206.95 59.2083C206.95 59.3253 206.995 59.4379 207.075 59.5231C207.155 59.6083 207.265 59.6596 207.382 59.6667C207.498 59.6596 207.608 59.6083 207.688 59.5231C207.769 59.4379 207.813 59.3253 207.813 59.2083C207.813 59.0913 207.769 58.9788 207.688 58.8936C207.608 58.8084 207.498 58.757 207.382 58.75Z" fill="black"/>
<path d="M222.5 33.3759C222.383 33.3829 222.274 33.4343 222.193 33.5194C222.113 33.6046 222.068 33.7172 222.068 33.8342C222.068 33.9512 222.113 34.0638 222.193 34.1489C222.274 34.2341 222.383 34.2855 222.5 34.2925C222.617 34.2855 222.726 34.2341 222.807 34.1489C222.887 34.0638 222.931 33.9512 222.931 33.8342C222.931 33.7172 222.887 33.6046 222.807 33.5194C222.726 33.4343 222.617 33.3829 222.5 33.3759Z" fill="black"/>
<path d="M235.452 69.2733C235.335 69.2804 235.225 69.3317 235.145 69.4169C235.065 69.5021 235.02 69.6147 235.02 69.7317C235.02 69.8486 235.065 69.9612 235.145 70.0464C235.225 70.1316 235.335 70.1829 235.452 70.19C235.568 70.1829 235.678 70.1316 235.758 70.0464C235.839 69.9612 235.883 69.8486 235.883 69.7317C235.883 69.6147 235.839 69.5021 235.758 69.4169C235.678 69.3317 235.568 69.2804 235.452 69.2733Z" fill="black"/>
<path d="M231.403 51.1899C231.287 51.197 231.177 51.2483 231.097 51.3335C231.016 51.4187 230.972 51.5313 230.972 51.6483C230.972 51.7653 231.016 51.8778 231.097 51.963C231.177 52.0482 231.287 52.0996 231.403 52.1066C231.52 52.0996 231.63 52.0482 231.71 51.963C231.79 51.8778 231.835 51.7653 231.835 51.6483C231.835 51.5313 231.79 51.4187 231.71 51.3335C231.63 51.2483 231.52 51.197 231.403 51.1899Z" fill="black"/>
<path d="M183.36 60.0967C183.243 60.1037 183.134 60.1551 183.053 60.2403C182.973 60.3254 182.928 60.438 182.928 60.555C182.928 60.672 182.973 60.7846 183.053 60.8698C183.134 60.9549 183.243 61.0063 183.36 61.0133C183.477 61.0063 183.586 60.9549 183.667 60.8698C183.747 60.7846 183.791 60.672 183.791 60.555C183.791 60.438 183.747 60.3254 183.667 60.2403C183.586 60.1551 183.477 60.1037 183.36 60.0967Z" fill="black"/>
</svg>
