<svg width="529" height="561" viewBox="0 0 529 561" fill="none" xmlns="http://www.w3.org/2000/svg">
<path d="M272.664 38.9782C271.8 38.8287 270.91 38.948 270.115 39.3199C269.32 39.6918 268.658 40.2985 268.219 41.0582C267.006 42.7835 265.704 44.4437 264.317 46.032C262.803 47.6276 261.062 48.9904 259.15 50.0765C257.193 51.1683 254.606 52.1955 252.511 50.8728C252.083 50.6191 251.728 50.2602 251.479 49.8304C251.23 49.4006 251.094 48.9141 251.086 48.4172C251.142 47.9493 251.091 47.4749 250.937 47.0293C250.784 46.5838 250.532 46.1787 250.2 45.8442C249.924 45.599 249.575 45.4522 249.206 45.4267C248.838 45.4012 248.472 45.4985 248.165 45.7033C247.335 46.3334 247.412 47.6267 247.298 48.5561C247.137 50.8698 247.413 53.193 248.112 55.4045C248.542 56.7279 248.819 58.0959 248.94 59.4822C248.902 60.1329 248.818 60.7802 248.689 61.4193C248.607 62.1723 248.482 62.9202 248.318 63.6596C247.602 66.4036 246.613 69.0689 245.365 71.6155C245.183 72.0185 245.287 72.6662 245.829 72.7523L252.914 73.8715C253.111 73.9176 253.319 73.8876 253.496 73.7875C253.672 73.6875 253.805 73.5247 253.867 73.3315C254.738 70.849 256.115 68.5744 257.911 66.6514C258.763 65.8808 259.727 65.2435 260.77 64.7613C262.051 64.0764 263.335 63.4757 264.683 62.9063C267.074 61.9928 269.242 60.5807 271.045 58.7639C272.848 56.9472 274.243 54.7674 275.138 52.3697C276.159 49.3971 276.362 46.2043 275.725 43.1264C275.618 42.2289 275.28 41.3745 274.744 40.6472C274.207 39.9199 273.49 39.3448 272.664 38.9782ZM269.438 58.2377C267.431 59.89 265.159 61.1889 262.717 62.0787C260.468 62.8959 258.402 64.1456 256.633 65.7572C254.909 67.6614 253.559 69.874 252.655 72.2788L247.147 71.41C247.97 69.6469 248.689 67.8372 249.3 65.99C249.634 64.9419 249.892 63.8707 250.071 62.785C250.275 61.8068 250.417 60.8167 250.497 59.8207C250.32 57.5313 249.869 55.2715 249.153 53.0897C248.873 52.0295 248.721 50.9398 248.699 49.8436C248.715 49.3114 248.83 48.7635 248.895 48.2352C248.936 47.8928 248.863 46.8519 249.268 47.0906C249.767 47.3841 249.55 49.1334 249.717 49.6832C249.982 50.5163 250.488 51.2523 251.17 51.7983C251.892 52.3523 252.73 52.7362 253.621 52.9215C254.512 53.1068 255.433 53.0888 256.316 52.8686C260.27 51.725 263.768 49.3745 266.321 46.1455C267.044 45.3128 267.724 44.4436 268.358 43.5412C268.901 42.6534 269.545 41.8308 270.275 41.0895C272.332 39.2483 273.811 41.6511 274.237 43.5451C274.765 46.2002 274.601 48.9464 273.76 51.5196C272.92 54.0928 271.431 56.4063 269.438 58.2377Z" fill="black"/>
<path d="M284.878 47.2197C284.074 53.673 281.152 59.6773 276.57 64.2917C276.458 64.4423 276.404 64.6281 276.418 64.8152C276.432 65.0022 276.512 65.1782 276.645 65.3109C276.777 65.4437 276.953 65.5244 277.14 65.5385C277.327 65.5525 277.513 65.4989 277.664 65.3874C282.524 60.4746 285.607 54.0816 286.426 47.2197C286.545 46.2316 284.995 46.2394 284.878 47.2197Z" fill="black"/>
<path d="M288.568 61.39C286.056 64.7812 282.835 67.5853 279.131 69.608C278.258 70.0873 279.039 71.4257 279.914 70.9444C283.843 68.7805 287.252 65.7857 289.905 62.1687C290.501 61.3704 289.153 60.5956 288.568 61.39Z" fill="black"/>
<path d="M187.884 214.327C187.461 213.192 186.982 212.073 186.491 210.967C185.478 208.683 184.34 206.457 183.08 204.299C180.574 200.014 177.611 196.012 174.244 192.363C171.536 189.428 167.137 185.492 162.862 187.822C159.004 189.925 162.629 194.966 162.561 198.024C162.629 203.084 161.471 208.013 161.142 213.041C160.736 217.451 161.354 221.895 162.95 226.026C164.529 229.792 167.589 233.61 171.755 234.557C175.921 235.504 179.059 232.637 180.351 228.902C181.812 224.674 180.648 220.123 181.376 215.826C181.774 216.93 182.571 217.845 183.611 218.391C184.181 218.777 184.867 218.957 185.554 218.9C186.24 218.843 186.887 218.554 187.387 218.079C187.886 217.604 188.208 216.972 188.299 216.289C188.39 215.606 188.245 214.912 187.888 214.323L187.884 214.327ZM185.231 217.197C183.057 217.221 182.454 214.483 182.067 212.828C181.871 212.01 180.836 212.184 180.574 212.828C178.813 217.117 180.116 221.664 179.443 226.094C178.928 229.489 176.899 233.594 172.853 233.185C168.724 232.767 165.643 228.704 164.232 225.126C162.867 221.372 162.332 217.366 162.666 213.386C162.964 208.244 164.177 203.211 164.107 198.038C164.033 196.641 163.745 195.263 163.251 193.954C162.703 192.739 162.541 191.384 162.788 190.074C163.426 188.462 165.875 188.579 167.212 188.998C168.987 189.648 170.579 190.717 171.853 192.115C177.581 197.959 182.178 204.813 185.411 212.331C185.959 213.396 186.391 214.517 186.698 215.675C186.88 216.671 186.162 217.186 185.233 217.197H185.231Z" fill="black"/>
<path d="M40.2652 274.117L36.7901 260.316C35.6318 255.722 34.5889 251.079 33.3131 246.516C32.9218 245.117 31.5776 244.197 30.3077 245.354C28.7756 246.747 30.1707 248.911 29.1552 250.543C26.7289 254.435 21.0487 252.085 17.9866 250.404C16.2682 249.455 14.6565 248.325 13.179 247.033C11.7252 245.767 10.4866 244.33 9.16394 242.937C8.63862 242.239 7.9622 241.668 7.18526 241.268C6.40832 240.868 5.55096 240.649 4.6773 240.626C3.97363 240.725 3.30877 241.009 2.75053 241.449C2.19229 241.888 1.76067 242.468 1.49968 243.129C0.273327 246.705 0.390169 250.606 1.8284 254.102C2.82045 256.904 4.43513 259.446 6.55096 261.534C8.66679 263.622 11.2287 265.204 14.0439 266.159C16.4032 266.776 18.7273 267.52 21.0057 268.39C22.8229 269.263 24.4011 270.563 25.6048 272.181C26.8085 273.798 27.6019 275.683 27.9166 277.674C27.9733 277.871 28.1047 278.038 28.2829 278.138C28.461 278.239 28.6716 278.267 28.8695 278.214L39.7232 275.066C39.9005 275.017 40.0519 274.901 40.1458 274.743L40.1732 274.708C40.189 274.677 40.2021 274.645 40.2123 274.612C40.2887 274.458 40.3075 274.283 40.2652 274.117ZM29.2511 276.5C28.5922 273.552 26.9912 270.899 24.6901 268.941C21.7179 266.437 18.0198 265.895 14.4548 264.672C10.8928 263.427 7.80603 261.105 5.62172 258.028C3.43741 254.951 2.2636 251.272 2.26278 247.498C2.11463 245.876 2.53519 244.252 3.45243 242.906C4.80449 241.358 6.63788 242.599 7.76688 243.728C9.05046 245.009 10.1853 246.412 11.5296 247.641C12.8191 248.823 14.2068 249.893 15.6777 250.84C18.6773 252.762 22.6043 254.683 26.2613 254.079C27.8668 253.83 29.309 252.957 30.2744 251.65C30.713 251.05 31.0027 250.354 31.1197 249.619C31.1745 249.194 31.1804 248.764 31.1373 248.338C31.0982 247.864 30.8771 247.07 31.2097 246.657C31.6989 246.046 31.8124 246.911 31.9082 247.285C32.0569 247.872 32.2017 248.449 32.3485 249.032L33.272 252.701C33.8734 255.088 34.4747 257.475 35.0761 259.862C36.2501 264.506 37.4195 269.15 38.5844 273.794L29.2511 276.5Z" fill="black"/>
<path d="M204.435 69.428C201.784 57.3925 204.388 43.6861 197.391 33.5427C191.668 25.2464 180.449 21.8027 170.56 23.7594C160.671 25.716 152.151 32.2865 146.084 40.3304C140.016 48.3742 139.094 57.3142 133.903 65.9627C131.626 69.7508 125.501 75.2177 124.406 80.8784C123.798 83.7065 123.901 86.641 124.705 89.4197C125.509 92.1984 126.988 94.7346 129.012 96.8017C133.158 100.701 139.122 101.819 144.734 102.77C161.083 105.538 178.326 108.235 193.885 102.496C199.44 100.447 204.964 96.9465 207.044 91.4013C209.677 84.3691 206.05 76.7557 204.435 69.428ZM164.848 87.85C164.748 88.8283 163.199 88.842 163.298 87.85C164.049 80.2998 163.611 72.6787 162.001 65.2642C162.074 65.2113 162.162 65.1839 162.232 65.1292C162.77 65.88 163.358 66.5933 163.993 67.2639C165.24 74.052 165.528 80.9818 164.848 87.85ZM184.62 90.2254C184.327 91.1763 182.832 90.7674 183.125 89.8125C184.804 84.2988 185.69 78.5743 185.755 72.811C186.289 72.6428 186.82 72.4588 187.344 72.2534C187.319 78.345 186.402 84.4 184.62 90.2254ZM198.121 58.3317C197.473 61.7138 195.693 64.7743 193.073 67.0095C190.359 69.4225 187.061 71.0844 183.507 71.8305C179.953 72.5767 176.265 72.3811 172.81 71.2633C168.787 69.8454 165.347 67.136 163.026 63.558C162.966 63.4572 162.883 63.3715 162.784 63.3072C162.685 63.2429 162.573 63.2017 162.457 63.1866C162.34 63.1716 162.221 63.1831 162.109 63.2203C161.998 63.2575 161.896 63.3194 161.811 63.4014C161.098 64.1745 160.129 64.6628 159.084 64.7758C158.038 64.8888 156.987 64.6188 156.125 64.0158C155.305 63.3946 154.644 62.5863 154.199 61.6581C153.755 60.7299 153.538 59.7088 153.568 58.68C153.922 57.47 154.696 56.4258 155.751 55.7348C156.805 55.0438 158.072 54.7512 159.322 54.9095C159.454 54.9434 159.593 54.9423 159.724 54.9064C159.855 54.8706 159.975 54.8011 160.071 54.7049C160.167 54.6087 160.236 54.4891 160.272 54.3579C160.308 54.2267 160.309 54.0884 160.275 53.9566C160.154 53.3539 160.08 52.7415 160.003 52.131C167.196 48.9221 174.332 44.9618 179.032 38.4813C180.666 40.0114 182.339 41.5318 184.082 42.9249C185.863 44.4347 187.931 45.5694 190.162 46.261C192.783 46.9474 195.513 47.1188 198.2 46.7658C198.803 50.5999 198.774 54.507 198.113 58.3317H198.121Z" fill="black"/>
<path d="M172.565 51.679C171.007 51.2987 169.364 51.4883 167.932 52.2135C166.501 52.9387 165.377 54.1517 164.762 55.6334C164.371 56.5531 165.875 56.9522 166.255 56.0463C166.749 54.9553 167.609 54.0712 168.686 53.5464C169.762 53.0217 170.988 52.8892 172.152 53.1719C172.339 53.1954 172.528 53.1509 172.684 53.0466C172.841 52.9423 172.954 52.7852 173.004 52.604C173.054 52.4228 173.038 52.2296 172.957 52.0597C172.876 51.8899 172.737 51.7547 172.565 51.679Z" fill="black"/>
<path d="M193.102 48.3663C192.262 47.884 191.305 47.6416 190.336 47.6658C189.367 47.6899 188.424 47.9796 187.608 48.5033C186.773 49.0414 187.549 50.3817 188.391 49.8417C188.967 49.4532 189.641 49.2343 190.336 49.2097C191.031 49.1852 191.719 49.356 192.322 49.7027C192.496 49.772 192.689 49.7765 192.866 49.7155C193.043 49.6545 193.192 49.532 193.287 49.3703C193.381 49.2086 193.415 49.0183 193.381 48.8341C193.347 48.6499 193.248 48.4839 193.102 48.3663Z" fill="black"/>
<path d="M170.806 56.5707C170.722 56.4883 170.62 56.426 170.508 56.3886C170.396 56.3512 170.277 56.3396 170.16 56.3546C170.043 56.3697 169.931 56.411 169.832 56.4755C169.733 56.5401 169.65 56.6261 169.589 56.7272C169.473 56.9337 169.406 57.1639 169.393 57.4003C169.34 57.6002 169.336 57.81 169.382 58.0118C169.427 58.2136 169.521 58.4012 169.656 58.5586C169.675 58.5958 169.683 58.633 169.705 58.6682C169.781 58.7965 169.895 58.8987 170.031 58.9615C170.167 59.0243 170.318 59.0448 170.466 59.0204C170.64 59.0281 170.813 58.9781 170.956 58.878C171.099 58.7779 171.205 58.6333 171.258 58.4667C171.274 58.4099 171.274 58.3571 171.286 58.3023C171.316 58.2196 171.331 58.1321 171.331 58.044C171.354 57.7752 171.319 57.5045 171.229 57.2503C171.138 56.996 170.994 56.7642 170.806 56.5707Z" fill="black"/>
<path d="M189.772 53.7746C189.739 53.7198 189.69 53.667 189.651 53.6122C189.612 53.5574 189.612 53.5496 189.584 53.5241C189.557 53.4987 189.512 53.4146 189.465 53.3637C189.377 53.268 189.264 53.1997 189.138 53.1667C189.012 53.1338 188.88 53.1376 188.757 53.1778C188.725 53.1778 188.7 53.1602 188.669 53.1582C188.532 53.1569 188.398 53.1926 188.28 53.2615C188.162 53.3304 188.065 53.43 187.999 53.5496C187.897 53.7743 187.845 54.0191 187.849 54.2662C187.852 54.5133 187.911 54.7564 188.021 54.9779C188.029 55.0813 188.058 55.182 188.106 55.2739C188.154 55.3658 188.22 55.4471 188.301 55.5129C188.381 55.5786 188.473 55.6275 188.573 55.6567C188.672 55.6858 188.777 55.6945 188.88 55.6823C188.917 55.6941 188.939 55.7215 188.978 55.7313C189.176 55.7837 189.387 55.7563 189.565 55.655C189.743 55.5536 189.874 55.3864 189.931 55.1893C189.994 54.9441 190.01 54.6891 189.978 54.4379C189.97 54.2023 189.899 53.9731 189.772 53.7746Z" fill="black"/>
<path d="M183.873 55.6217C184.419 56.8603 184.697 58.9852 182.916 59.3276C181.938 59.5233 182.352 61.0084 183.329 60.8206C184.144 60.605 184.851 60.0972 185.315 59.3939C185.779 58.6906 185.969 57.841 185.847 57.007C185.651 54.8136 183.975 53.1739 183.487 51.0764C183.262 50.098 181.767 50.5168 181.994 51.4873C182.487 52.9222 183.116 54.3067 183.873 55.6217Z" fill="black"/>
<path d="M187.23 60.8968C185.384 62.2865 183.137 63.0424 180.826 63.0519C178.515 63.0614 176.263 62.3241 174.404 60.9496C174.286 60.8837 174.153 60.8495 174.018 60.8503C173.883 60.8511 173.75 60.887 173.633 60.9544C173.515 61.0218 173.418 61.1184 173.349 61.2349C173.28 61.3513 173.243 61.4836 173.24 61.6188C173.241 63.7718 174.035 65.849 175.472 67.4527C176.908 69.0564 178.886 70.0739 181.026 70.3103C182.004 70.4336 182.004 68.8839 181.026 68.7607C179.55 68.569 178.172 67.92 177.084 66.9047C175.996 65.8895 175.253 64.559 174.96 63.1C176.993 64.2121 179.301 64.7213 181.613 64.5682C183.926 64.415 186.146 63.6057 188.015 62.2352C188.804 61.658 188.033 60.3039 187.23 60.8968Z" fill="black"/>
<path d="M92.4339 275.772C93.8171 275.772 94.9384 274.651 94.9384 273.268C94.9384 271.884 93.8171 270.763 92.4339 270.763C91.0506 270.763 89.9293 271.884 89.9293 273.268C89.9293 274.651 91.0506 275.772 92.4339 275.772Z" fill="black"/>
<path d="M115.047 270.004C116.43 270.004 117.552 268.883 117.552 267.499C117.552 266.116 116.43 264.995 115.047 264.995C113.664 264.995 112.543 266.116 112.543 267.499C112.543 268.883 113.664 270.004 115.047 270.004Z" fill="black"/>
<path d="M91.7353 262.58C90.3465 262.933 89.0899 263.681 88.1174 264.733C87.145 265.785 86.4987 267.097 86.2566 268.509C86.1079 269.487 87.6008 269.904 87.7515 268.92C87.9248 267.769 88.4339 266.696 89.215 265.833C89.9961 264.971 91.0145 264.359 92.1423 264.073C93.1245 263.887 92.7097 262.394 91.7353 262.58Z" fill="black"/>
<path d="M119.649 259.319C116.697 258.035 113.869 257.213 110.825 258.712C109.93 259.152 110.713 260.489 111.607 260.048C112.784 259.589 114.05 259.405 115.308 259.51C116.567 259.616 117.785 260.008 118.868 260.657C119.772 261.042 120.561 259.716 119.649 259.319Z" fill="black"/>
<path d="M114.032 274.766C108.553 276.179 103.18 277.897 97.7149 279.333C97.6011 279.366 97.4963 279.424 97.4083 279.503C97.3203 279.582 97.2514 279.681 97.2067 279.79C97.1621 279.9 97.1429 280.018 97.1506 280.136C97.1583 280.254 97.1927 280.369 97.2511 280.472C98.1411 281.992 99.3878 283.272 100.883 284.201C102.379 285.131 104.079 285.682 105.835 285.808C107.132 285.858 108.423 285.602 109.602 285.059C110.782 284.517 111.816 283.704 112.623 282.687C114.136 280.597 114.97 278.092 115.012 275.512C115.01 275.393 114.981 275.277 114.928 275.171C114.874 275.065 114.797 274.973 114.703 274.901C114.609 274.829 114.499 274.78 114.383 274.756C114.266 274.733 114.146 274.736 114.032 274.766ZM111.57 281.527C110.914 282.421 110.047 283.139 109.047 283.617C108.046 284.095 106.943 284.318 105.835 284.266C104.522 284.171 103.245 283.788 102.096 283.146C100.946 282.504 99.9518 281.617 99.1824 280.548C103.921 279.277 108.612 277.827 113.355 276.565C113.189 278.343 112.575 280.05 111.57 281.527Z" fill="black"/>
<path d="M87.1059 504.976C76.7399 498.021 67.2604 489.829 58.877 480.58C57.22 478.519 55.3487 476.639 53.2947 474.972C52.4704 474.253 51.4109 473.86 50.3166 473.869C49.2796 473.958 48.2838 474.317 47.4279 474.909C46.572 475.501 45.8857 476.307 45.4367 477.246C42.7932 482.881 46.415 490.651 50.798 496.617C57.0867 505.189 76.6083 516.986 76.6083 516.986L87.1059 504.976Z" fill="black"/>
<path d="M438.768 274.453C440.063 274.156 439.515 272.164 438.218 272.461C436.114 272.945 433.326 273.244 433.011 270.425C432.731 267.93 433.978 265.552 433.144 263.069C432.724 261.817 430.73 262.353 431.154 263.619C432.133 266.515 430.066 269.554 431.463 272.454C432.837 275.306 436.159 275.052 438.768 274.453Z" fill="black"/>
<path d="M430.254 263.478C430.26 263.399 430.255 263.32 430.241 263.242C430.241 263.228 430.241 263.218 430.241 263.204C430.22 263.149 430.194 263.095 430.164 263.044C430.149 263.005 430.132 262.967 430.111 262.93C429.984 262.617 429.752 262.358 429.455 262.197C429.157 262.036 428.813 261.984 428.481 262.049C428.15 262.114 427.851 262.292 427.636 262.553C427.421 262.814 427.303 263.141 427.303 263.479C427.303 263.817 427.421 264.145 427.636 264.406C427.851 264.667 428.15 264.845 428.481 264.91C428.813 264.975 429.157 264.922 429.455 264.761C429.752 264.601 429.984 264.341 430.111 264.028C430.133 263.99 430.153 263.95 430.17 263.909C430.197 263.858 430.221 263.806 430.243 263.752C430.243 263.739 430.243 263.729 430.243 263.715C430.256 263.637 430.26 263.557 430.254 263.478Z" fill="black"/>
<path d="M452.11 263.471C452.114 263.392 452.109 263.313 452.095 263.236C452.095 263.222 452.095 263.21 452.095 263.197C452.077 263.136 452.04 263.093 452.018 263.036C452.002 262.998 451.984 262.96 451.963 262.923C451.836 262.61 451.604 262.351 451.306 262.19C451.009 262.029 450.665 261.977 450.333 262.042C450.002 262.107 449.703 262.285 449.488 262.546C449.273 262.807 449.156 263.135 449.156 263.473C449.156 263.811 449.273 264.138 449.488 264.399C449.703 264.66 450.002 264.838 450.333 264.903C450.665 264.968 451.009 264.916 451.306 264.755C451.604 264.594 451.836 264.335 451.963 264.022C451.989 263.985 452.001 263.94 452.022 263.901C452.044 263.862 452.079 263.805 452.097 263.747C452.096 263.734 452.096 263.722 452.097 263.709C452.11 263.631 452.115 263.551 452.11 263.471Z" fill="black"/>
<path d="M443.006 255.63C442.143 256.634 443.593 258.101 444.466 257.09C445.314 256.112 446.496 255.485 447.782 255.332C449.067 255.179 450.363 255.511 451.418 256.262C452.5 257.045 453.533 255.247 452.461 254.48C451.012 253.495 449.256 253.07 447.517 253.281C445.779 253.493 444.176 254.327 443.006 255.63Z" fill="black"/>
<path d="M431.685 254.493C432.958 254.885 433.502 252.893 432.234 252.503C430.756 252.059 429.179 252.056 427.699 252.495C426.219 252.935 424.899 253.797 423.903 254.977C423.064 255.994 424.517 257.462 425.363 256.436C426.102 255.518 427.099 254.842 428.226 254.496C429.353 254.149 430.557 254.149 431.685 254.493Z" fill="black"/>
<path d="M491.159 254.079C489.368 249.655 486.712 245.634 483.346 242.25C484.698 240.11 485.371 237.611 485.277 235.081C485.183 232.551 484.326 230.109 482.819 228.075C481.312 226.041 479.225 224.51 476.832 223.683C474.439 222.856 471.853 222.771 469.411 223.441C468.161 219.076 465.92 215.058 462.862 211.701C461.32 210.04 459.411 208.762 457.287 207.969C455.164 207.176 452.885 206.889 450.631 207.132C448.386 207.457 446.323 208.552 444.797 210.229C443.27 211.907 442.373 214.063 442.26 216.329C436.447 214.66 430.237 215.031 424.664 217.38C419.091 219.73 414.489 223.916 411.625 229.243C410.021 232.065 409.453 235.358 410.018 238.554C410.342 240.135 411.174 241.566 412.388 242.629C413.601 243.693 415.128 244.33 416.738 244.444C413.812 245.919 411.422 248.273 409.902 251.175C408.381 254.077 407.806 257.382 408.258 260.627C408.71 263.871 410.165 266.894 412.42 269.27C414.676 271.646 417.618 273.258 420.835 273.878C421.031 274.483 421.226 275.083 421.447 275.674C422.361 278.105 423.585 280.407 425.091 282.523C424.883 282.498 424.673 282.543 424.494 282.65C419.891 285.384 415.674 288.722 411.957 292.576C411.034 293.533 412.494 294.994 413.417 294.036C417.009 290.307 421.085 287.078 425.537 284.434C425.668 284.361 425.78 284.258 425.863 284.133C425.947 284.008 425.999 283.865 426.016 283.716C427.371 285.414 428.956 286.915 430.726 288.175C434.814 291.063 439.88 292.211 444.814 291.367C448.425 290.707 451.795 289.094 454.574 286.694C449.305 293.559 442.531 299.122 434.772 302.954C433.581 303.541 434.625 305.322 435.815 304.737C445.055 300.156 452.916 293.209 458.599 284.603C461.221 286.207 464.336 286.805 467.366 286.285C470.55 285.566 473.36 283.705 475.264 281.054C477.168 278.402 478.034 275.145 477.698 271.898C479.918 272.769 482.373 272.838 484.64 272.095C486.906 271.351 488.843 269.841 490.116 267.824C491.319 265.761 492.038 263.452 492.219 261.071C492.399 258.69 492.037 256.299 491.159 254.079ZM463.57 263.594C462.737 273.516 457.505 284.691 447.631 288.443C445.545 289.254 443.316 289.636 441.079 289.567C438.841 289.498 436.64 288.979 434.608 288.04C430.329 285.874 426.874 282.37 424.768 278.061C422.297 273.147 421.102 267.69 421.291 262.193C421.193 257.059 422.738 252.028 425.701 247.835C431.143 240.863 441.11 239.617 449.261 241.446C453.183 242.194 456.759 244.184 459.463 247.121C462.214 250.601 463.7 254.914 463.676 259.35C463.719 260.763 463.682 262.177 463.567 263.586L463.57 263.594ZM469.116 267.717C468.809 268.88 468.153 269.922 467.237 270.702C466.321 271.482 465.189 271.964 463.991 272.082C464.396 270.818 464.729 269.534 464.991 268.233C465.293 266.7 465.508 265.151 465.635 263.594C465.707 262.67 465.734 261.737 465.742 260.802C467.037 261.362 468.089 262.367 468.707 263.635C469.325 264.904 469.469 266.351 469.112 267.717H469.116Z" fill="black"/>
<path d="M446.853 274.481C446.698 274.446 446.536 274.457 446.388 274.513C446.24 274.57 446.111 274.669 446.019 274.798C444.889 276.215 443.439 277.344 441.788 278.093C440.137 278.841 438.332 279.187 436.521 279.102C435.193 279.04 435.197 281.106 436.521 281.167C438.322 281.243 440.119 280.956 441.806 280.323C443.493 279.691 445.036 278.725 446.342 277.484C446.26 280.352 445.175 283.101 443.276 285.252C442.615 285.994 443.706 287.093 444.372 286.346C445.733 284.818 446.74 283.009 447.32 281.047C447.901 279.085 448.041 277.02 447.731 274.997C447.721 274.899 447.688 274.804 447.634 274.72C447.581 274.636 447.508 274.567 447.423 274.516C447.337 274.466 447.241 274.437 447.142 274.431C447.043 274.424 446.944 274.442 446.853 274.481Z" fill="black"/>
<path d="M327.645 101.144C328.558 106.303 329.471 111.462 330.384 116.623C330.558 117.601 332.049 117.188 331.877 116.212C330.964 111.051 330.051 105.891 329.138 100.731C328.965 99.7523 327.482 100.167 327.645 101.144Z" fill="#84D0AB"/>
<path d="M332.93 52.6789L333.822 85.4609C333.848 85.6475 333.941 85.8182 334.084 85.9417C334.226 86.0652 334.408 86.1331 334.597 86.1331C334.785 86.1331 334.967 86.0652 335.11 85.9417C335.252 85.8182 335.345 85.6475 335.372 85.4609L334.477 52.6789C334.449 52.4937 334.356 52.3247 334.214 52.2026C334.072 52.0805 333.891 52.0133 333.704 52.0133C333.516 52.0133 333.335 52.0805 333.193 52.2026C333.051 52.3247 332.958 52.4937 332.93 52.6789Z" fill="#84D0AB"/>
<path d="M339.543 101.84L341.433 125.516C341.512 126.494 343.061 126.512 342.981 125.516C342.351 117.626 341.722 109.735 341.093 101.84C341.013 100.854 339.463 100.846 339.543 101.84Z" fill="#84D0AB"/>
<path d="M345.317 67.2482C345.358 76.0493 345.4 84.851 345.443 93.6534C345.471 93.8386 345.564 94.0076 345.706 94.1297C345.848 94.2518 346.029 94.319 346.216 94.319C346.404 94.319 346.585 94.2518 346.727 94.1297C346.869 94.0076 346.962 93.8386 346.99 93.6534C346.95 84.8523 346.908 76.0506 346.865 67.2482C346.837 67.063 346.744 66.894 346.602 66.7719C346.46 66.6497 346.279 66.5826 346.091 66.5826C345.904 66.5826 345.723 66.6497 345.581 66.7719C345.439 66.894 345.345 67.063 345.317 67.2482Z" fill="#84D0AB"/>
<path d="M348.483 21.7204C349.201 32.6399 349.918 43.5594 350.636 54.4789C350.7 55.469 352.25 55.4768 352.185 54.4789C351.465 43.5607 350.748 32.6412 350.033 21.7204C349.966 20.7304 348.419 20.7245 348.483 21.7204Z" fill="#84D0AB"/>
<path d="M356.756 90.9199V121.88C356.783 122.067 356.876 122.238 357.018 122.361C357.16 122.485 357.342 122.553 357.531 122.553C357.719 122.553 357.901 122.485 358.044 122.361C358.186 122.238 358.279 122.067 358.306 121.88V90.9199C358.279 90.7334 358.186 90.5627 358.044 90.4392C357.901 90.3157 357.719 90.2477 357.531 90.2477C357.342 90.2477 357.16 90.3157 357.018 90.4392C356.876 90.5627 356.783 90.7334 356.756 90.9199Z" fill="#84D0AB"/>
<path d="M340.7 45.4177L338.874 19.0027C338.806 18.0243 337.256 18.0067 337.326 19.0027L339.152 45.4177C339.222 46.396 340.77 46.4077 340.7 45.4177Z" fill="#84D0AB"/>
<path d="M323.933 3.50395L324.843 32.6446C324.874 33.6386 326.422 33.6425 326.392 32.6446L325.483 3.50395C325.451 2.50996 323.904 2.50605 323.933 3.50395Z" fill="#84D0AB"/>
<path d="M319.219 47.2276C320.156 59.0629 321.094 70.8987 322.033 82.7353C322.109 83.7136 323.659 83.7312 323.581 82.7353L320.769 47.2276C320.691 46.2415 319.141 46.2336 319.219 47.2276Z" fill="#84D0AB"/>
<path d="M363.681 1.66861L362.955 19.8871C362.916 20.8831 364.463 20.8831 364.504 19.8871L365.23 1.66861C365.269 0.670705 363.722 0.672662 363.681 1.66861Z" fill="#84D0AB"/>
<path d="M359.767 49.9748L361.027 76.3643C361.074 77.3564 362.624 77.3622 362.575 76.3643L361.317 49.9748C361.27 48.9808 359.722 48.9769 359.767 49.9748Z" fill="#84D0AB"/>
<path d="M266.712 532.954C259.326 526.077 245.214 531.802 235.511 534.835C225.808 537.868 218.506 540.388 209.879 545.757C207.727 547.093 205.261 549.236 206.067 551.627C206.92 554.159 210.442 554.204 213.078 553.76L256.436 546.424C259.685 546.192 262.794 545.007 265.372 543.016C267.712 540.793 269.369 534.796 266.712 532.954Z" fill="black"/>
<path d="M421.011 480.721C420.571 479.827 419.234 480.612 419.673 481.504C420.861 483.918 421.985 486.362 423.046 488.835C423.437 489.749 424.772 488.961 424.384 488.053C423.319 485.581 422.194 483.137 421.011 480.721Z" fill="black"/>
<path d="M428.552 474.02C428.994 478.956 429.558 483.878 430.244 488.787C430.381 489.765 431.874 489.35 431.737 488.374C431.072 483.603 430.527 478.819 430.102 474.02C430.012 473.035 428.464 473.026 428.552 474.02Z" fill="black"/>
<path d="M438.621 472.253L437.218 488.755C437.132 489.749 438.682 489.734 438.766 488.755L440.169 472.253C440.253 471.259 438.703 471.265 438.621 472.253Z" fill="black"/>
<path d="M446.673 472.441L442.182 489.055C442.159 489.241 442.204 489.429 442.309 489.585C442.413 489.741 442.57 489.854 442.751 489.904C442.932 489.954 443.125 489.937 443.295 489.857C443.464 489.776 443.599 489.637 443.675 489.466L448.166 472.853C448.189 472.667 448.145 472.478 448.04 472.322C447.936 472.165 447.779 472.052 447.598 472.001C447.416 471.951 447.223 471.968 447.053 472.049C446.883 472.129 446.748 472.268 446.673 472.441Z" fill="black"/>
<path d="M454.824 475.407L449.435 489.025C449.068 489.951 450.566 490.354 450.928 489.436L456.317 475.818C456.683 474.892 455.186 474.489 454.824 475.407Z" fill="black"/>
<path d="M460.313 481.308L456.358 489.029C455.904 489.916 457.241 490.7 457.695 489.812C459.013 487.237 460.331 484.663 461.649 482.089C462.101 481.204 460.768 480.42 460.313 481.308Z" fill="black"/>
<path d="M472.344 502.104C471.965 501.198 470.466 501.595 470.849 502.515L473.185 508.118C473.563 509.024 475.064 508.627 474.68 507.708L472.344 502.104Z" fill="black"/>
<path d="M477.449 499.805C477.373 499.632 477.238 499.493 477.068 499.413C476.899 499.332 476.705 499.315 476.524 499.365C476.343 499.416 476.186 499.529 476.081 499.686C475.977 499.842 475.933 500.031 475.956 500.217C476.683 502.927 477.409 505.637 478.136 508.347C478.212 508.52 478.347 508.659 478.517 508.739C478.686 508.82 478.88 508.837 479.061 508.787C479.242 508.736 479.399 508.623 479.504 508.466C479.608 508.31 479.652 508.121 479.629 507.935C478.901 505.221 478.174 502.511 477.449 499.805Z" fill="black"/>
<path d="M482.722 498.867V508.58C482.75 508.765 482.844 508.934 482.986 509.056C483.128 509.179 483.309 509.246 483.496 509.246C483.683 509.246 483.865 509.179 484.007 509.056C484.149 508.934 484.242 508.765 484.27 508.58V498.867C484.242 498.682 484.149 498.513 484.007 498.391C483.865 498.269 483.683 498.202 483.496 498.202C483.309 498.202 483.128 498.269 482.986 498.391C482.844 498.513 482.75 498.682 482.722 498.867Z" fill="black"/>
<path d="M491.412 497.408C490.687 501.034 489.961 504.659 489.236 508.283C489.04 509.261 490.533 509.672 490.729 508.694C491.454 505.07 492.18 501.446 492.905 497.82C493.101 496.838 491.608 496.429 491.412 497.408Z" fill="black"/>
<path d="M499.775 498.605L496.104 507.97C495.74 508.899 497.237 509.3 497.597 508.383L501.268 499.016C501.626 498.089 500.135 497.686 499.775 498.605Z" fill="black"/>
<path d="M508.709 502.481L505.382 507.845C504.854 508.694 506.193 509.47 506.719 508.627L510.045 503.266C510.574 502.415 509.233 501.636 508.709 502.481Z" fill="black"/>
<path d="M14.0791 204.17C13.6036 203.293 12.2653 204.074 12.7407 204.952L22.3284 222.627C22.8039 223.504 24.1403 222.723 23.6648 221.844C20.4689 215.954 17.2737 210.062 14.0791 204.17Z" fill="black"/>
<path d="M31.5913 206.647C30.5738 211.907 29.557 217.167 28.5409 222.428C28.3452 223.406 29.846 223.819 30.0358 222.838C31.0519 217.579 32.0681 212.319 33.0843 207.058C33.2721 206.08 31.7811 205.669 31.5913 206.647Z" fill="black"/>
<path d="M54.0519 208.175L41.9205 226.396C41.3668 227.227 42.7032 228.004 43.2589 227.178L55.3902 208.956C55.944 208.124 54.6017 207.347 54.0519 208.175Z" fill="black"/>
<path d="M525.941 231.753C525.503 230.596 524.826 229.544 523.955 228.666C523.084 227.788 522.038 227.102 520.885 226.654C519.639 226.355 518.331 226.449 517.14 226.922C515.949 227.395 514.934 228.225 514.232 229.297C512.586 232.029 511.795 235.191 511.963 238.376C512.134 240.1 511.787 241.835 510.967 243.36C509.517 245.054 507.752 242.348 507.12 241.243C506.828 240.542 506.398 239.907 505.856 239.375C505.314 238.843 504.67 238.426 503.964 238.147C503.372 237.946 502.73 237.944 502.137 238.144C501.545 238.343 501.034 238.732 500.684 239.251C500.616 239.37 500.58 239.505 500.58 239.642C500.58 239.78 500.616 239.915 500.684 240.034C505.317 248.549 507.979 257.996 508.474 267.677C508.523 268.667 510.073 268.675 510.022 267.677C509.523 257.914 506.88 248.381 502.279 239.756C503.062 239.124 504.385 239.975 504.899 240.624C505.618 241.865 506.421 243.055 507.304 244.186C507.717 244.636 508.235 244.976 508.812 245.176C509.39 245.376 510.008 245.43 510.611 245.332C511.137 245.174 511.617 244.89 512.008 244.503C512.399 244.117 512.689 243.64 512.853 243.115C513.266 241.797 513.476 240.423 513.475 239.042C513.508 237.338 513.655 235.638 513.915 233.954C514.397 231.479 515.896 228.528 518.637 228.033C521.157 227.579 523.049 229.618 524.153 231.622C525.357 234.085 526.15 236.729 526.501 239.448C528.653 252.01 525.975 264.921 519.003 275.59C518.453 276.426 519.785 277.202 520.339 276.373C527.282 265.687 530.074 252.829 528.187 240.225C527.84 237.31 527.084 234.457 525.941 231.753Z" fill="black"/>
<path d="M496.46 395.503C499.937 395.868 503.311 396.902 506.396 398.547C507.83 399.291 509.722 400.079 511.168 398.948C511.688 398.43 512.041 397.769 512.185 397.049C512.328 396.329 512.254 395.583 511.973 394.906C511.052 391.535 509.719 388.29 508.004 385.246C506.445 382.268 504.07 379.797 501.156 378.122C499.473 377.225 497.164 376.584 496.333 374.676C495.519 372.805 497.53 371.52 497.767 369.765C497.851 369.439 497.863 369.1 497.802 368.769C497.741 368.439 497.609 368.126 497.414 367.852C497.22 367.578 496.968 367.35 496.676 367.184C496.384 367.018 496.059 366.918 495.724 366.89C493.989 366.89 492.874 368.927 491.878 370.076C486.174 376.629 478.93 381.662 470.798 384.721C469.873 385.068 470.274 386.565 471.209 386.214C478.007 383.673 484.226 379.792 489.496 374.803C490.784 373.58 492.008 372.293 493.165 370.946C493.723 370.297 494.222 369.567 494.836 368.972C495.071 368.745 495.517 368.307 495.887 368.458C496.257 368.608 496.278 369.117 496.253 369.436C496.085 370.179 495.751 370.874 495.274 371.469C494.785 372.216 494.542 373.097 494.578 373.989C494.699 374.792 495.001 375.556 495.462 376.224C495.923 376.893 496.53 377.447 497.237 377.846C498.753 378.824 500.487 379.376 501.956 380.444C503.281 381.436 504.437 382.636 505.379 383.997C507.23 386.809 508.688 389.861 509.713 393.068C510.104 394.199 511.278 396.44 510.386 397.569C509.325 398.891 506.668 396.917 505.586 396.416C502.618 395.046 499.432 394.206 496.174 393.935C488.653 393.274 481.173 395.593 475.344 400.392C474.579 401.034 475.68 402.124 476.439 401.488C479.22 399.224 482.419 397.531 485.854 396.504C489.289 395.477 492.893 395.136 496.46 395.503Z" fill="black"/>
<path d="M517.113 424.322C514.88 420.565 511.729 417.437 507.956 415.232C504.183 413.026 499.912 411.815 495.542 411.711C493.057 411.651 490.578 411.981 488.195 412.69C488.021 412.764 487.88 412.9 487.798 413.07C487.716 413.241 487.699 413.435 487.749 413.617C487.8 413.8 487.915 413.958 488.072 414.062C488.23 414.166 488.42 414.21 488.608 414.185C493.707 412.772 499.13 413.075 504.039 415.049C508.949 417.023 513.072 420.557 515.774 425.107C515.891 425.256 516.058 425.358 516.244 425.393C516.43 425.429 516.623 425.396 516.787 425.3C516.95 425.204 517.073 425.052 517.133 424.872C517.193 424.692 517.186 424.497 517.113 424.322Z" fill="black"/>
<path d="M360.564 540.846C360.186 539.94 358.685 540.337 359.069 541.259L361.405 546.861C361.785 547.768 363.284 547.369 362.9 546.45L360.564 540.846Z" fill="black"/>
<path d="M365.671 538.556C365.596 538.383 365.461 538.242 365.29 538.16C365.12 538.078 364.925 538.06 364.743 538.111C364.561 538.161 364.403 538.276 364.298 538.434C364.194 538.591 364.151 538.782 364.176 538.969C364.901 541.679 365.628 544.389 366.355 547.099C366.431 547.271 366.566 547.41 366.736 547.49C366.905 547.571 367.098 547.588 367.279 547.538C367.46 547.488 367.617 547.375 367.722 547.219C367.826 547.063 367.871 546.875 367.848 546.688L365.671 538.556Z" fill="black"/>
<path d="M370.942 537.619V547.332C370.97 547.517 371.063 547.686 371.205 547.808C371.347 547.93 371.528 547.998 371.716 547.998C371.903 547.998 372.084 547.93 372.226 547.808C372.368 547.686 372.462 547.517 372.49 547.332V537.619C372.462 537.434 372.368 537.265 372.226 537.143C372.084 537.021 371.903 536.953 371.716 536.953C371.528 536.953 371.347 537.021 371.205 537.143C371.063 537.265 370.97 537.434 370.942 537.619Z" fill="black"/>
<path d="M379.631 536.15C378.907 539.773 378.182 543.398 377.456 547.023C377.26 548.001 378.753 548.412 378.951 547.434C379.675 543.81 380.399 540.186 381.124 536.561C381.32 535.592 379.827 535.171 379.631 536.15Z" fill="black"/>
<path d="M387.994 537.357L384.324 546.716C383.96 547.645 385.456 548.046 385.816 547.129C387.041 544.006 388.266 540.884 389.489 537.764C389.851 536.84 388.354 536.439 387.994 537.357Z" fill="black"/>
<path d="M396.928 541.237L393.602 546.598C393.074 547.448 394.412 548.226 394.938 547.381L398.265 542.02C398.793 541.167 397.455 540.39 396.928 541.237Z" fill="black"/>
<path d="M139.331 521.486C138.954 520.58 137.455 520.978 137.838 521.899L140.175 527.501C140.552 528.409 142.053 528.01 141.668 527.09L139.331 521.486Z" fill="black"/>
<path d="M144.438 519.191C144.362 519.019 144.227 518.881 144.058 518.8C143.888 518.72 143.695 518.703 143.514 518.753C143.333 518.802 143.176 518.916 143.072 519.071C142.967 519.227 142.922 519.416 142.945 519.602C143.672 522.311 144.398 525.021 145.125 527.732C145.201 527.904 145.336 528.042 145.505 528.123C145.675 528.203 145.868 528.22 146.049 528.171C146.23 528.121 146.387 528.008 146.491 527.852C146.596 527.696 146.641 527.507 146.618 527.321C145.891 524.612 145.165 521.902 144.438 519.191Z" fill="black"/>
<path d="M149.711 518.252V527.965C149.739 528.15 149.833 528.319 149.975 528.441C150.117 528.564 150.298 528.631 150.485 528.631C150.672 528.631 150.854 528.564 150.996 528.441C151.138 528.319 151.231 528.15 151.259 527.965V518.252C151.231 518.067 151.138 517.898 150.996 517.776C150.854 517.654 150.672 517.586 150.485 517.586C150.298 517.586 150.117 517.654 149.975 517.776C149.833 517.898 149.739 518.067 149.711 518.252Z" fill="black"/>
<path d="M158.401 516.779C157.676 520.402 156.95 524.027 156.225 527.652C156.029 528.63 157.522 529.041 157.718 528.065C158.445 524.44 159.17 520.815 159.894 517.19C160.089 516.225 158.597 515.8 158.401 516.779Z" fill="black"/>
<path d="M166.764 517.99L163.093 527.356C162.729 528.284 164.226 528.687 164.586 527.767L168.257 518.403C168.621 517.473 167.124 517.072 166.764 517.99Z" fill="black"/>
<path d="M175.698 521.866L172.372 527.227C171.843 528.076 173.182 528.855 173.708 528.01L177.034 522.647C177.563 521.801 176.232 521.023 175.698 521.866Z" fill="black"/>
<path d="M82.8285 550.694C82.7528 550.522 82.6178 550.383 82.4482 550.303C82.2786 550.222 82.0858 550.205 81.9048 550.255C81.7238 550.305 81.5668 550.418 81.4623 550.574C81.3578 550.73 81.3128 550.918 81.3356 551.104L83.5153 559.236C83.5911 559.409 83.7262 559.548 83.8961 559.628C84.0659 559.709 84.2591 559.726 84.4403 559.676C84.6215 559.625 84.7787 559.512 84.883 559.355C84.9872 559.199 85.0317 559.01 85.0083 558.824C84.283 556.114 83.5564 553.404 82.8285 550.694Z" fill="black"/>
<path d="M88.1018 549.756V559.469C88.1298 559.654 88.2233 559.823 88.3653 559.945C88.5073 560.068 88.6884 560.135 88.8757 560.135C89.063 560.135 89.244 560.068 89.386 559.945C89.528 559.823 89.6215 559.654 89.6495 559.469V549.756C89.6215 549.571 89.528 549.402 89.386 549.28C89.244 549.158 89.063 549.091 88.8757 549.091C88.6884 549.091 88.5073 549.158 88.3653 549.28C88.2233 549.402 88.1298 549.571 88.1018 549.756Z" fill="black"/>
<path d="M96.7914 548.281C96.0661 551.906 95.3408 555.531 94.6155 559.156C94.4199 560.134 95.9128 560.545 96.1085 559.567C96.8337 555.942 97.559 552.318 98.2843 548.694C98.48 547.727 96.987 547.303 96.7914 548.281Z" fill="black"/>
<path d="M105.154 549.494L101.487 558.859C101.123 559.786 102.62 560.189 102.98 559.27C104.203 556.148 105.426 553.027 106.651 549.905C107.011 548.978 105.514 548.574 105.154 549.494Z" fill="black"/>
<path d="M459.649 549.909C459.272 549.001 457.773 549.4 458.156 550.32L460.493 555.924C460.87 556.83 462.369 556.433 461.986 555.511L459.649 549.909Z" fill="black"/>
<path d="M464.756 547.612C464.68 547.44 464.545 547.301 464.376 547.221C464.206 547.14 464.013 547.123 463.832 547.173C463.651 547.223 463.494 547.336 463.39 547.492C463.285 547.648 463.24 547.836 463.263 548.023L465.441 556.153C465.517 556.324 465.652 556.463 465.821 556.544C465.991 556.624 466.184 556.641 466.365 556.591C466.546 556.541 466.703 556.428 466.807 556.272C466.912 556.116 466.957 555.928 466.934 555.742L464.756 547.612Z" fill="black"/>
<path d="M470.027 546.673V556.385C470.054 556.572 470.147 556.743 470.289 556.866C470.432 556.99 470.614 557.058 470.802 557.058C470.991 557.058 471.173 556.99 471.315 556.866C471.458 556.743 471.551 556.572 471.577 556.385V546.673C471.551 546.486 471.458 546.315 471.315 546.192C471.173 546.068 470.991 546 470.802 546C470.614 546 470.432 546.068 470.289 546.192C470.147 546.315 470.054 546.486 470.027 546.673Z" fill="black"/>
<path d="M478.719 545.207C477.994 548.831 477.268 552.455 476.543 556.08C476.347 557.059 477.84 557.472 478.036 556.493C478.76 552.868 479.485 549.243 480.212 545.618C480.406 544.646 478.913 544.229 478.719 545.207Z" fill="black"/>
<path d="M487.082 546.412L483.409 555.777C483.045 556.704 484.544 557.108 484.904 556.188L488.575 546.823C488.939 545.896 487.442 545.493 487.082 546.412Z" fill="black"/>
<path d="M496.014 550.288L492.688 555.65C492.159 556.499 493.5 557.278 494.024 556.432L497.35 551.071C497.879 550.222 496.538 549.443 496.014 550.288Z" fill="black"/>
<path d="M199.64 183.826C200.229 184.57 200.855 185.283 201.516 185.963C204.886 189.243 208.819 191.889 213.127 193.776L239.493 153.551C235.654 152.696 231.905 151.279 228.133 150.121C222.263 160.614 214.007 169.531 205.684 178.138C203.836 180.204 201.814 182.107 199.64 183.826Z" fill="#84D0AB"/>
<path d="M258.592 69.6804C255.841 64.6987 248.662 63.7869 243.483 66.1408C238.303 68.4946 234.625 73.1691 231.017 77.5677C227.409 81.9663 223.386 86.4549 217.95 88.163C208.153 91.2487 189.711 80.7023 178.404 81.5534C177.268 81.47 176.128 81.4785 174.993 81.5789C165.819 82.4124 159.248 89.838 154.644 97.1559C149.273 105.782 145.046 115.069 142.067 124.784C138.716 135.002 137.063 145.7 137.175 156.453C137.299 166.473 139.916 176.304 144.788 185.061C149.032 192.403 156.119 200.501 165.298 200.756C167.233 200.815 169.16 200.485 170.964 199.786C172.769 199.087 174.415 198.033 175.805 196.686C177.119 195.397 178.065 193.782 178.545 192.005C179.057 189.496 178.877 186.895 178.024 184.48C177.224 181.79 176.13 179.179 175.138 176.555L172.203 168.803C170.207 163.523 168.211 158.24 166.214 152.954C165.862 152.019 167.357 151.622 167.709 152.543C170.138 159.366 173.246 165.929 176.985 172.131C178.671 174.82 180.597 177.351 182.74 179.692C184.775 182.156 187.33 184.139 190.222 185.499C191.796 186.092 193.501 186.249 195.157 185.954C196.813 185.659 198.359 184.923 199.632 183.823C201.806 182.103 203.828 180.2 205.676 178.134C214 169.525 222.257 160.611 228.125 150.117C228.678 149.127 229.24 148.143 229.749 147.121C229.644 147.133 229.538 147.124 229.438 147.094C229.337 147.064 229.243 147.014 229.162 146.947C227.4 145.542 225.77 143.98 224.292 142.281C219.936 136.982 216.446 131.027 213.953 124.637C217.2 124.433 220.396 123.732 223.431 122.559C241.765 114.226 252.088 101.036 258.361 81.8958C259.684 77.9121 260.621 73.3511 258.592 69.6804ZM169.579 135.773C169.522 135.848 169.448 135.91 169.363 135.954C169.278 135.997 169.185 136.022 169.09 136.025C168.642 140.718 167.419 145.304 165.47 149.597C165.057 150.502 163.723 149.716 164.132 148.814C167.581 141.206 168.613 132.723 167.088 124.51C166.907 123.532 168.399 123.121 168.583 124.099C169.167 127.235 169.395 130.427 169.264 133.614C170.955 131.048 171.68 127.964 171.311 124.913C171.196 123.923 172.745 123.935 172.859 124.913C173.075 126.851 172.896 128.813 172.332 130.679C171.769 132.546 170.832 134.279 169.579 135.773ZM187.802 116.809C186.994 115.594 186.185 114.38 185.374 113.165C184.82 112.334 186.156 111.559 186.712 112.383L189.14 116.024C189.688 116.86 188.346 117.634 187.794 116.809H187.802ZM193.347 128.281C192.738 127.498 194.085 126.715 194.685 127.498L197.875 131.628C198.483 132.411 197.137 133.194 196.536 132.411C195.468 131.028 194.402 129.652 193.339 128.281H193.347ZM204.727 146.605L202.283 142.973C201.723 142.142 203.066 141.369 203.619 142.191L206.063 145.822C206.615 146.652 205.273 147.427 204.719 146.605H204.727ZM212.086 159.91C211.276 158.696 210.466 157.481 209.658 156.267C209.102 155.435 210.44 154.66 210.994 155.484L213.422 159.125C213.97 159.961 212.626 160.736 212.078 159.91H212.086ZM212.841 146.08C210.603 143.548 208.472 140.927 206.449 138.217C205.615 137.1 204.803 135.968 204.013 134.82C203.414 133.957 202.839 133.076 202.265 132.198C202.101 131.947 201.931 131.703 201.77 131.45C201.062 130.348 200.373 129.233 199.702 128.104L199.673 128.058C195.657 121.335 192.304 114.239 189.659 106.869C189.322 105.928 190.819 105.527 191.154 106.458C192.282 109.612 193.543 112.715 194.936 115.768C196.331 118.812 197.871 121.788 199.512 124.702C200.518 126.48 201.568 128.232 202.663 129.959L202.747 130.094C203.845 131.82 204.985 133.516 206.167 135.182L206.273 135.325C207.318 136.79 208.403 138.224 209.513 139.641C209.779 139.981 210.045 140.32 210.315 140.656C211.489 142.124 212.691 143.572 213.935 144.981C214.583 145.728 213.495 146.828 212.833 146.08H212.841Z" fill="#F36E72"/>
<path d="M107.316 292.255C104.917 292.517 102.491 292.333 100.159 291.711C100.756 295.921 101.354 300.131 101.951 304.341C104.268 303.662 106.547 302.878 108.764 302.027C113.39 300.248 117.937 298.199 122.506 296.239C121.649 292.631 120.87 289.006 120.17 285.364C116.917 289.212 112.321 291.676 107.316 292.255Z" fill="black"/>
<path d="M100.458 304.758L98.5347 291.212C94.7248 289.791 91.3889 287.332 88.9049 284.113C86.4209 280.894 84.888 277.043 84.48 272.998C83.1436 261.097 91.2011 250.424 102.481 249.158C107.024 248.733 111.58 249.817 115.444 252.244C119.308 254.671 122.264 258.304 123.854 262.58C123.891 262.58 123.926 262.569 123.964 262.569C125.294 262.562 126.581 263.043 127.582 263.92C128.583 264.797 129.228 266.01 129.397 267.33C129.565 268.65 129.245 269.986 128.497 271.086C127.748 272.186 126.623 272.975 125.333 273.303C124.952 277.057 123.613 280.651 121.445 283.74C122.185 287.721 123.024 291.682 123.964 295.623C128.6 293.589 133.373 291.88 138.247 290.51C138.122 288.424 137.973 286.34 137.766 284.26C137.171 277.439 135.831 270.703 133.772 264.173C132.056 258.316 128.995 252.941 124.832 248.477C120.551 244.193 114.81 241.684 108.758 241.452C104.561 241.24 100.364 241.877 96.42 243.327C92.4755 244.777 88.8648 247.009 85.8046 249.889C79.3476 256.133 75.6926 264.703 73.2252 273.191C70.7673 282.641 69.2881 292.318 68.811 302.07C70.0542 302.853 71.3515 303.547 72.693 304.146C81.3649 307.961 91.1581 307.28 100.458 304.758Z" fill="black"/>
<path d="M77.7901 361.398C74.8434 357.226 70.0457 354.968 65.4045 352.702C65.3575 353.133 65.3203 353.563 65.2773 353.996C65.0928 360.677 65.7502 367.355 67.2339 373.872C67.8178 375.449 68.538 376.972 69.3863 378.425C71.5418 381.945 74.6549 384.778 78.3615 386.594C79.7136 387.271 81.1177 387.839 82.5605 388.292C82.2722 384.366 81.9859 380.439 81.7015 376.513C81.3161 371.256 80.8328 365.705 77.7901 361.398Z" fill="black"/>
<path d="M168.19 481.414C162.736 478.419 157.629 474.833 152.959 470.721C149.817 468.132 146.757 465.438 143.736 462.716C146.63 459.135 149.467 455.512 152.171 451.786C156.084 446.397 159.769 440.853 163.226 435.154C164.922 432.359 166.549 429.526 168.108 426.655L168.262 426.363V423.138C168.147 423.334 168.014 423.551 167.946 423.68C167.554 424.412 167.163 425.143 166.772 425.872C166.002 427.285 165.219 428.688 164.424 430.081C161.162 435.762 157.66 441.291 153.916 446.669C146.344 457.506 138.002 467.784 128.955 477.424C119.966 487.024 110.454 496.12 100.462 504.671C99.3181 505.677 98.0981 506.592 96.8129 507.41C92.4991 503.806 88.137 500.262 83.7267 496.778C83.8147 496.77 83.9001 496.744 83.9778 496.702C84.0555 496.66 84.1239 496.602 84.1787 496.533C95.3656 483.177 106.279 469.598 116.918 455.795C127.585 441.958 137.968 427.906 148.066 413.641C153.56 405.879 158.966 398.053 164.285 390.161L162.164 390.523C152.873 404.253 143.327 417.799 133.526 431.161C123.187 445.237 112.563 459.097 101.656 472.74C95.5508 480.376 89.3586 487.942 83.079 495.437C82.9948 495.535 82.9367 495.652 82.9104 495.778C82.884 495.904 82.8902 496.034 82.9284 496.157C79.3868 493.357 75.8276 490.578 72.2508 487.82C73.8299 484.92 75.8648 482.222 77.6943 479.487C79.7136 476.467 81.7354 473.447 83.7599 470.427L95.9774 452.16L120.41 415.619L133.577 395.943L133.021 396.07C132.471 396.193 131.923 396.33 131.373 396.461L128.466 400.809L122.205 410.17C118.487 415.731 114.769 421.291 111.052 426.85C107.796 422.516 104.787 418.002 102.039 413.33C100.522 410.737 99.2434 408.013 98.2178 405.19C97.7129 405.323 97.2081 405.46 96.7013 405.591C99.4002 412.256 102.964 418.536 107.301 424.271C108.226 425.594 109.204 426.876 110.169 428.169L109.582 429.042L84.435 466.633L77.3675 477.199L73.8338 482.482C72.6534 484.133 71.5676 485.85 70.5818 487.624C70.4855 487.803 70.4606 488.012 70.5122 488.208C70.5638 488.405 70.6879 488.574 70.8596 488.683C79.4357 495.269 87.9237 501.973 96.218 508.913C96.3416 509.029 96.4987 509.103 96.667 509.125C96.8353 509.147 97.0062 509.115 97.1553 509.034C99.9627 507.212 102.584 505.118 104.982 502.783C107.46 500.605 109.907 498.396 112.321 496.155C117.205 491.63 121.96 486.969 126.586 482.173C132.225 476.312 137.616 470.226 142.759 463.915C144.475 465.469 146.191 467.021 147.948 468.523C153.008 473.089 158.424 477.244 164.144 480.948C165.48 481.76 166.856 482.504 168.266 483.177V479.414C168.262 480.036 168.198 480.735 168.19 481.414Z" fill="#74A3D7"/>
<path d="M93.1735 468.253L76.7727 490.031C76.174 490.827 77.5182 491.596 78.1111 490.814L107.303 452.044L136.494 413.271L152.324 392.249C151.576 392.384 150.833 392.526 150.087 392.661L122.365 429.48L93.1735 468.253Z" fill="#74A3D7"/>
<path d="M107.972 480.034C102.2 487.078 96.3197 494.028 90.3323 500.883C89.6808 501.63 90.7706 502.73 91.4281 501.976C102.125 489.715 112.482 477.168 122.502 464.336C132.521 451.504 142.181 438.4 151.48 425.025C156.71 417.505 161.823 409.905 166.82 402.226C167.364 401.386 166.024 400.609 165.482 401.443C156.638 415.034 147.428 428.377 137.852 441.472C128.249 454.598 118.289 467.452 107.972 480.034Z" fill="#74A3D7"/>
<path d="M162.69 419.425C155.268 431.343 147.311 442.902 138.819 454.101C130.34 465.273 121.348 476.035 111.842 486.386C106.486 492.222 100.981 497.915 95.3258 503.466C94.6136 504.166 95.7172 505.26 96.4216 504.561C106.478 494.685 116.065 484.359 125.185 473.583C134.253 462.85 142.815 451.716 150.872 440.181C155.437 433.641 159.828 426.983 164.044 420.207C164.557 419.358 163.216 418.579 162.69 419.425Z" fill="#74A3D7"/>
<path d="M106.784 346.985L104.201 331.977C103.847 333.453 103.151 334.826 102.169 335.983C101.187 337.141 99.947 338.052 98.5484 338.642C95.0264 340.105 91.4183 338.865 88.2407 337.116C89.2217 341.688 90.2 346.26 91.1757 350.832C95.9834 348.544 101.193 347.222 106.51 346.94C106.603 346.938 106.696 346.953 106.784 346.985Z" fill="#FCAFB7"/>
<path d="M97.6933 337.323C98.9922 336.834 100.144 336.019 101.037 334.957C101.931 333.895 102.537 332.621 102.796 331.257L87.9589 335.171C90.8763 336.934 94.3005 338.554 97.6933 337.323Z" fill="#FCAFB7"/>
<path d="M131.371 396.457C131.921 396.33 132.469 396.193 133.019 396.066L133.575 395.939C134.121 395.814 134.667 395.683 135.214 395.567C140.157 394.512 145.117 393.565 150.085 392.658C150.831 392.523 151.574 392.38 152.322 392.245C155.597 391.658 158.875 391.085 162.156 390.527L164.277 390.165L168.261 389.484V292.997C160.669 289.021 151.956 287.725 143.536 289.32C141.746 289.629 139.987 290.046 138.241 290.512C133.367 291.882 128.594 293.591 123.958 295.624C123.474 295.82 122.991 296.031 122.51 296.239C117.941 298.196 113.394 300.248 108.768 302.027C106.551 302.878 104.268 303.662 101.955 304.341C101.46 304.488 100.961 304.623 100.462 304.758C91.162 307.28 81.3689 307.961 72.6871 304.146C71.3456 303.546 70.0484 302.853 68.8051 302.07C58.0806 295.417 51.7939 282.914 44.4994 272.256C43.0898 270.081 41.4318 268.078 39.5588 266.286C33.6888 268.918 27.8188 271.569 21.7962 273.772C21.7551 274.078 21.7121 274.385 21.6788 274.686C18.3231 305.576 35.7277 337.681 63.4419 351.728C64.0915 352.057 64.7489 352.38 65.3986 352.706C70.0398 354.972 74.8375 357.23 77.7843 361.402C80.8269 365.706 81.3063 371.259 81.6976 376.517C81.9833 380.445 82.2696 384.371 82.5566 388.296L83.5349 401.641C83.6301 403.954 84.0315 406.244 84.7285 408.452C88.7396 407.589 92.7254 406.618 96.7013 405.591C97.2081 405.46 97.7129 405.323 98.2177 405.19C109.269 402.29 120.248 399.021 131.371 396.457ZM91.0935 352.581C90.9762 352.638 90.8468 352.666 90.7164 352.662C90.5859 352.659 90.4583 352.624 90.3444 352.56C90.2305 352.496 90.1336 352.406 90.062 352.297C89.9904 352.188 89.9462 352.063 89.9332 351.933C89.8497 351.84 89.7923 351.726 89.7669 351.603L86.4406 336.061L86.4112 336.043C86.3067 335.982 86.2195 335.895 86.1579 335.791C86.0963 335.686 86.0622 335.568 86.059 335.447C85.9317 335.368 85.8295 335.255 85.7644 335.121C85.6992 334.987 85.6739 334.836 85.6914 334.688C85.7089 334.54 85.7684 334.399 85.8631 334.284C85.9577 334.168 86.0834 334.082 86.2253 334.036C86.3364 333.859 86.5104 333.731 86.7123 333.677C86.9141 333.623 87.1289 333.648 87.3132 333.746L103.162 329.563C103.255 329.485 103.364 329.429 103.482 329.397C103.599 329.366 103.722 329.361 103.841 329.383L104.456 329.22C104.558 329.192 104.665 329.185 104.77 329.202C104.875 329.218 104.975 329.257 105.064 329.315C105.152 329.374 105.228 329.451 105.284 329.541C105.34 329.63 105.377 329.732 105.391 329.837C105.401 329.858 105.409 329.879 105.416 329.901C106.426 335.771 107.436 341.641 108.447 347.511C108.594 348.366 107.469 348.791 107.078 348.228C107.009 348.309 106.924 348.374 106.828 348.421C106.732 348.467 106.628 348.492 106.522 348.496C101.151 348.773 95.8974 350.164 91.0935 352.581Z" fill="#F58AB4"/>
<path d="M107.066 348.224C107.457 348.787 108.586 348.363 108.435 347.507C107.423 341.637 106.413 335.767 105.405 329.897C105.397 329.876 105.389 329.854 105.379 329.833C105.365 329.728 105.329 329.627 105.272 329.537C105.216 329.447 105.141 329.37 105.052 329.311C104.963 329.253 104.863 329.214 104.758 329.198C104.653 329.182 104.546 329.188 104.444 329.217L103.829 329.379C103.71 329.357 103.587 329.362 103.47 329.394C103.353 329.425 103.244 329.481 103.15 329.559L87.3015 333.742C87.1171 333.644 86.9024 333.619 86.7005 333.673C86.4986 333.727 86.3246 333.855 86.2136 334.032C86.0716 334.078 85.9459 334.164 85.8513 334.28C85.7567 334.396 85.6971 334.536 85.6796 334.684C85.6622 334.832 85.6875 334.983 85.7526 335.117C85.8178 335.252 85.92 335.364 86.0473 335.443C86.0505 335.564 86.0845 335.682 86.1461 335.787C86.2077 335.891 86.2949 335.978 86.3995 336.039L86.4288 336.057L89.7551 351.599C89.7806 351.722 89.8379 351.836 89.9215 351.93C89.9345 352.059 89.9787 352.184 90.0503 352.293C90.1218 352.402 90.2187 352.492 90.3327 352.556C90.4466 352.62 90.5742 352.655 90.7046 352.658C90.835 352.662 90.9644 352.634 91.0818 352.577C95.8818 350.161 101.132 348.768 106.498 348.488C106.606 348.487 106.713 348.463 106.811 348.417C106.908 348.371 106.995 348.306 107.066 348.224ZM102.796 331.259C102.536 332.623 101.931 333.897 101.037 334.959C100.144 336.021 98.9922 336.836 97.6933 337.325C94.3005 338.556 90.8763 336.934 87.9589 335.173L102.796 331.259ZM88.2407 337.116C91.4183 338.865 95.0186 340.105 98.5484 338.642C99.947 338.052 101.187 337.141 102.169 335.983C103.151 334.826 103.847 333.454 104.201 331.977L106.784 346.985C106.696 346.954 106.603 346.939 106.51 346.942C101.196 347.224 95.9889 348.546 91.1835 350.832C90.2013 346.261 89.2203 341.689 88.2407 337.116Z" fill="white"/>
<path d="M413.576 399.733C407.646 394.359 402.526 388.156 398.374 381.315V411.577C403.767 408.065 408.852 404.103 413.576 399.733Z" fill="#FCAFB7"/>
<path d="M504.169 265.844C500.724 268.986 497.654 272.516 495.022 276.365C489.226 284.724 482.89 292.997 474.412 298.61C465.934 304.224 454.861 306.828 445.411 303.066C437.617 299.962 431.974 293.102 424.752 288.833C417.06 284.33 407.943 282.923 399.251 284.898C398.953 284.967 398.664 285.06 398.372 285.148V378.309C398.419 378.391 398.464 378.474 398.513 378.554C400.047 381.184 401.705 383.734 403.487 386.206C410.425 396.272 420.006 404.227 431.176 409.195C441.775 413.626 453.637 413.993 464.49 410.226C469.804 408.351 474.595 405.239 478.468 401.147C482.077 397.256 485.368 390.75 482.812 385.494C480.237 380.186 473.616 379.667 468.452 379.135C462.707 378.641 457.098 377.111 451.897 374.619C441.163 369.094 432.552 360.183 427.397 349.266C421.778 336.948 419.193 323.461 419.858 309.937C419.886 309.752 419.98 309.583 420.122 309.461C420.264 309.339 420.445 309.272 420.632 309.272C420.82 309.272 421.001 309.339 421.143 309.461C421.285 309.583 421.378 309.752 421.406 309.937C421.316 313.334 421.369 316.735 421.602 320.126C422.529 333.554 426.339 347.114 434.496 357.993C436.134 360.171 437.934 362.22 439.881 364.125C443.774 356.018 446.665 347.466 448.49 338.659C464.198 341.007 480.384 334.83 492.515 324.585C504.647 314.34 513.139 300.381 519.517 285.843C520.104 284.497 520.66 283.123 521.175 281.744C525.023 271.37 511.517 259.228 504.169 265.844ZM463.394 386.66C464.001 389.694 464.608 392.73 465.216 395.767C465.412 396.745 463.917 397.154 463.721 396.178L461.901 387.071C461.71 386.095 463.199 385.682 463.394 386.66ZM439.208 403.775L446.493 393.757C447.08 392.959 448.416 393.732 447.829 394.54L440.544 404.556C439.969 405.354 438.621 404.581 439.208 403.775ZM420.082 388.502L423.799 375.771C423.875 375.6 424.01 375.461 424.18 375.38C424.349 375.3 424.542 375.283 424.723 375.333C424.904 375.383 425.061 375.496 425.165 375.652C425.27 375.808 425.315 375.996 425.292 376.182L421.586 388.912C421.514 389.09 421.379 389.234 421.208 389.319C421.036 389.403 420.839 389.422 420.655 389.372C420.47 389.321 420.31 389.205 420.206 389.044C420.101 388.884 420.059 388.691 420.087 388.502H420.082ZM415.973 359.985L406.958 353.483C406.156 352.906 406.929 351.564 407.741 352.147L416.755 358.647C417.565 359.226 416.792 360.568 415.982 359.985H415.973ZM438.793 315.354C438.185 316.568 437.578 317.782 436.971 318.997C436.525 319.889 435.189 319.102 435.633 318.214C436.241 317.001 436.848 315.787 437.455 314.573C437.911 313.677 439.247 314.459 438.803 315.354H438.793ZM463.938 319.237L454.842 325.612C454.024 326.186 453.251 324.841 454.059 324.274L463.165 317.901C463.985 317.328 464.76 318.67 463.948 319.237H463.938ZM477.371 321.507L474.631 314.223C474.279 313.285 475.778 312.886 476.124 313.81C477.037 316.237 477.951 318.666 478.864 321.094C479.226 322.032 477.727 322.431 477.381 321.503L477.371 321.507ZM499.957 306.754L490.852 305.827C489.874 305.727 489.86 304.177 490.852 304.279L499.957 305.206C500.949 305.306 500.956 306.856 499.966 306.754H499.957ZM507.302 285.107L506.388 280.554C506.192 279.576 507.685 279.167 507.883 280.143L508.797 284.695C509.002 285.671 507.507 286.088 507.312 285.109L507.302 285.107Z" fill="#F58AB4"/>
<path d="M294.657 170.977C289.574 169.107 284.037 168.854 278.805 170.252C273.572 171.65 268.9 174.631 265.426 178.787C261.953 182.943 259.849 188.07 259.401 193.468C258.954 198.865 260.185 204.269 262.927 208.94C265.669 213.611 269.787 217.32 274.718 219.561C279.649 221.801 285.152 222.463 290.473 221.456C295.795 220.449 300.675 217.822 304.447 213.935C308.218 210.047 310.696 205.09 311.541 199.74C311.75 198.384 311.858 197.015 311.864 195.643C311.826 190.274 310.161 185.043 307.089 180.639C304.017 176.236 299.683 172.867 294.657 170.977Z" fill="black"/>
<path d="M327.678 222.334C325.677 219.119 323.268 216.177 320.511 213.581C312.495 204.921 303.82 196.897 294.561 189.581C287.538 184.175 279.703 179.916 271.348 176.962C262.476 184.169 261.369 196.725 265.963 206.948C269.69 207.629 273.322 210.828 276.554 212.818C281.325 215.951 285.622 219.75 289.316 224.1C292.893 228.481 296.813 232.571 301.038 236.332C305.33 240.118 310.826 242.257 316.548 242.37C322.223 242.196 327.991 238.652 329.496 233.211C330.332 229.487 329.68 225.583 327.678 222.334Z" fill="#84D0AB"/>
<path d="M327.322 258.264C338.564 252.841 350.426 248.81 362.644 246.258C365.26 245.872 367.828 245.209 370.304 244.282C371.341 243.934 372.216 243.219 372.764 242.272C373.211 241.332 373.406 240.292 373.328 239.254C373.25 238.215 372.902 237.216 372.319 236.353C368.797 231.221 360.258 230.419 352.897 231.176C342.322 232.262 322.27 243.129 322.27 243.129L327.322 258.264Z" fill="black"/>
<path d="M251.791 379.663C250.421 377.282 247.666 375.936 245.408 374.551C242.802 372.95 240.18 371.373 237.503 369.89C232.246 366.838 226.614 364.484 220.748 362.889C219.366 362.334 217.863 362.152 216.389 362.362C215.858 362.543 215.386 362.864 215.023 363.292C214.661 363.72 214.422 364.239 214.332 364.793C214.315 365.415 214.427 366.034 214.663 366.609C214.899 367.185 215.253 367.706 215.702 368.137C215.757 368.209 215.831 368.264 215.898 368.332C215.267 368.223 214.623 368.21 213.988 368.295C213.128 368.379 212.311 368.708 211.633 369.243C210.956 369.778 210.447 370.497 210.166 371.314C209.985 372.159 210.024 373.036 210.282 373.86C210.539 374.685 211.006 375.429 211.636 376.02C212.156 376.516 212.75 376.928 213.397 377.241C212.321 377.487 211.366 378.106 210.703 378.988C210.147 379.753 209.84 380.67 209.823 381.614C209.805 382.559 210.078 383.487 210.605 384.271C212.123 386.435 214.976 387.089 217.4 387.75L235.597 392.714L241.164 394.233C242.315 394.535 243.526 394.522 244.669 394.193C245.813 393.864 246.846 393.232 247.66 392.364C248.465 391.343 249.139 390.225 249.668 389.038C250.304 387.836 250.879 386.568 251.589 385.406C252.091 384.722 252.422 383.928 252.554 383.089C252.664 381.896 252.397 380.697 251.791 379.663ZM250.288 384.555C249.789 385.353 249.396 386.242 248.955 387.073C248.4 388.124 247.864 389.188 247.288 390.227C246.757 391.227 245.904 392.018 244.868 392.474C243.832 392.931 242.673 393.026 241.577 392.744L228.88 389.28C224.591 388.106 220.288 386.985 216.011 385.77C213.986 385.195 211.068 383.931 211.37 381.362C211.726 378.337 215.203 378.391 217.508 378.591C218.382 378.667 218.553 377.272 217.713 377.071C215.324 376.484 211.035 375.31 211.593 371.966C211.776 371.319 212.171 370.752 212.714 370.356C213.257 369.96 213.917 369.756 214.589 369.778C216.219 369.845 217.807 370.316 219.21 371.148C220.098 371.574 220.867 370.318 219.993 369.811C218.966 369.223 218.041 368.473 217.254 367.589C216.649 366.91 215.579 365.789 215.911 364.785C216.303 363.589 217.477 363.748 218.455 363.947C219.715 364.208 220.963 364.519 222.198 364.881C227.101 366.4 231.824 368.446 236.286 370.984C238.587 372.246 240.847 373.582 243.089 374.946C245.305 376.094 247.394 377.472 249.323 379.055C250.125 379.756 250.693 380.687 250.947 381.722C251.051 382.214 251.045 382.723 250.932 383.213C250.818 383.703 250.598 384.163 250.288 384.559V384.555Z" fill="black"/>
<path d="M275.595 319.547C275.388 318.568 273.895 318.985 274.103 319.96C275.522 326.652 278.321 332.975 282.321 338.526C282.908 339.329 284.242 338.556 283.659 337.744C279.733 332.306 276.986 326.108 275.595 319.547Z" fill="black"/>
<path d="M314.064 344.336C307.378 328.771 304.781 311.756 306.519 294.906C306.524 294.825 306.516 294.744 306.495 294.666C307.373 294.689 308.246 294.536 309.064 294.217C309.882 293.898 310.628 293.418 311.258 292.807C312.042 291.941 312.629 290.916 312.979 289.801C313.329 288.687 313.433 287.51 313.284 286.351C313.135 285.193 312.737 284.08 312.117 283.09C311.497 282.1 310.67 281.256 309.692 280.617C309.324 280.38 308.939 280.171 308.54 279.991C308.757 279.435 308.858 278.841 308.839 278.245L308.886 272.111C308.997 269.804 308.826 267.493 308.377 265.228C307.914 262.944 306.631 260.908 304.771 259.504C302.403 258.27 299.805 257.537 297.14 257.352C296.497 257.231 295.692 256.871 295.771 256.219C295.812 255.896 296.078 255.644 296.162 255.329C296.358 254.622 295.636 254.02 294.988 253.67C289.985 250.984 284.174 250.218 278.646 251.517C276.939 252.181 275.072 252.322 273.285 251.922C271.959 251.206 270.795 250.225 269.864 249.04C266.858 246.527 262.994 245.277 259.085 245.551C244.279 245.412 246.062 256.16 245.78 259.264C245.653 262.385 246.081 265.504 247.044 268.476C247.363 270.378 248.304 272.12 249.721 273.43C249.816 273.5 249.928 273.532 250.026 273.592C249.676 277.897 249.134 282.202 248.682 286.491C247.769 292.283 247.819 298.186 248.83 303.962C249.363 306.495 250.479 308.869 252.089 310.896C253.699 312.922 255.76 314.546 258.107 315.637C265.865 319.236 275.04 318.572 283.315 317.905C286.078 317.799 288.805 317.244 291.39 316.261C293.738 315.222 295.772 313.582 297.285 311.507C298.955 309.221 300.138 306.618 300.764 303.858C301.435 302.586 301.719 301.146 301.584 299.714V298.642C301.678 297.552 301.744 296.462 301.77 295.382C301.791 294.54 301.77 293.699 301.77 292.858C302.7 293.716 303.853 294.296 305.096 294.533C305.023 294.64 304.978 294.764 304.965 294.893C303.207 312.017 305.878 329.307 312.721 345.103C313.12 346.03 314.455 345.242 314.064 344.336ZM297.77 307.746C296.69 310.088 295.033 312.119 292.955 313.647C290.654 315.113 288.025 315.982 285.304 316.177C280.352 316.793 275.357 316.99 270.371 316.764C266.826 316.649 263.321 315.978 259.983 314.776C257.684 313.934 255.623 312.546 253.976 310.734C252.33 308.921 251.147 306.736 250.529 304.367C249.398 298.971 249.248 293.417 250.085 287.968C250.531 283.391 251.145 278.826 251.54 274.244C252.74 274.518 253.976 274.6 255.201 274.488C259.566 274.201 263.868 273.293 267.976 271.792C268.844 271.409 269.77 271.173 270.716 271.094C271.191 271.061 271.665 271.16 272.088 271.38C272.51 271.6 272.863 271.932 273.109 272.34C273.299 272.915 273.446 273.504 273.549 274.101C274.151 276.001 276.511 276.627 278.501 276.721C282.886 276.92 287.251 276.013 291.194 274.083C291.364 273.968 291.556 273.889 291.758 273.853C291.961 273.816 292.168 273.822 292.368 273.87C292.665 274.041 292.882 274.322 292.973 274.653C293.426 276.168 293.704 277.731 293.8 279.31C293.865 279.777 293.954 280.241 294.066 280.699C294.078 287.915 294.091 295.131 294.104 302.348C294.037 302.838 294.081 303.338 294.231 303.81C294.382 304.282 294.635 304.715 294.972 305.077C295.511 305.446 296.136 305.672 296.786 305.733C297.437 305.793 298.092 305.688 298.69 305.425C298.431 306.218 298.124 306.995 297.77 307.75V307.746ZM301.668 290.136C301.637 290.064 301.594 289.998 301.541 289.94C301.525 286.932 301.511 283.924 301.498 280.914C301.578 280.961 301.668 280.991 301.76 281.003C301.852 281.015 301.946 281.009 302.036 280.985C306.994 279.525 312.893 283.149 311.682 288.758C311.495 289.871 310.957 290.895 310.147 291.68C309.336 292.466 308.297 292.972 307.179 293.124C306.061 293.277 304.923 293.069 303.932 292.53C302.941 291.991 302.147 291.15 301.668 290.128V290.136Z" fill="black"/>
<path d="M234.161 368.178C243.439 372.023 253.575 373.324 263.523 371.946C264.444 360.83 267.702 350.033 273.083 340.262C269.364 342.969 265.207 345.014 260.793 346.308C253.505 348.197 246.037 349.312 238.515 349.634C237.065 349.75 235.597 349.877 234.161 350.116V339.524C234.161 339.284 234.177 339.027 234.183 338.769H274.003C274.339 338.247 274.678 337.726 275.032 337.221H245.797C241.727 337.221 237.626 337.073 233.558 337.221C233.502 337.221 233.443 337.221 233.386 337.221C233.179 337.221 232.98 337.304 232.833 337.451C232.686 337.597 232.604 337.796 232.604 338.004V368.213C233.124 368.467 233.637 368.743 234.153 369.009L234.161 368.178Z" fill="black"/>
<path d="M333.384 437.24C333.384 437.479 333.368 437.737 333.36 437.993H283.921C284.837 436.757 285.652 435.448 286.357 434.08C283.763 433.285 281.294 432.125 279.025 430.636C271.623 425.635 267.872 417.165 265.72 408.767C254.966 409.782 244.372 412.081 234.165 415.615V391.527L232.615 391.106V426.357C232.615 430.427 232.467 434.528 232.615 438.594C232.615 438.653 232.615 438.71 232.615 438.768C232.618 438.974 232.701 439.171 232.848 439.315C232.994 439.46 233.192 439.541 233.398 439.541H321.759C325.829 439.541 329.93 439.69 333.998 439.541C334.055 439.541 334.113 439.541 334.17 439.541C334.376 439.541 334.574 439.46 334.72 439.315C334.867 439.171 334.95 438.974 334.953 438.768V434.428C334.447 434.628 333.93 434.817 333.403 434.996L333.384 437.24Z" fill="black"/>
<path d="M308.055 381.976C307.653 381.99 307.273 382.16 306.995 382.449C306.716 382.738 306.56 383.123 306.56 383.525C306.56 383.926 306.716 384.312 306.995 384.601C307.273 384.89 307.653 385.059 308.055 385.074C308.456 385.059 308.836 384.89 309.115 384.601C309.393 384.312 309.549 383.926 309.549 383.525C309.549 383.123 309.393 382.738 309.115 382.449C308.836 382.16 308.456 381.99 308.055 381.976Z" fill="white"/>
<path d="M297.129 371.05C296.727 371.064 296.347 371.234 296.068 371.523C295.79 371.811 295.634 372.197 295.634 372.599C295.634 373 295.79 373.386 296.068 373.675C296.347 373.964 296.727 374.133 297.129 374.148C297.53 374.133 297.91 373.964 298.189 373.675C298.467 373.386 298.623 373 298.623 372.599C298.623 372.197 298.467 371.811 298.189 371.523C297.91 371.234 297.53 371.064 297.129 371.05Z" fill="white"/>
<path d="M263.243 393.471C263.402 393.533 263.57 393.568 263.74 393.573C264.141 393.559 264.521 393.39 264.8 393.101C265.079 392.812 265.235 392.426 265.235 392.025C265.235 391.623 265.079 391.237 264.8 390.948C264.521 390.66 264.141 390.49 263.74 390.476C263.502 390.474 263.267 390.528 263.053 390.632C262.795 390.779 262.583 390.995 262.442 391.257C262.301 391.519 262.236 391.815 262.256 392.112C262.276 392.408 262.379 392.693 262.554 392.934C262.728 393.174 262.967 393.361 263.243 393.471Z" fill="white"/>
<path d="M287.414 398.974C287.012 398.988 286.632 399.157 286.354 399.446C286.075 399.735 285.919 400.121 285.919 400.522C285.919 400.924 286.075 401.31 286.354 401.599C286.632 401.887 287.012 402.057 287.414 402.071C287.815 402.057 288.195 401.887 288.474 401.599C288.752 401.31 288.908 400.924 288.908 400.522C288.908 400.121 288.752 399.735 288.474 399.446C288.195 399.157 287.815 398.988 287.414 398.974Z" fill="white"/>
<path d="M297.741 385.619C297.34 385.634 296.96 385.803 296.681 386.092C296.402 386.381 296.246 386.767 296.246 387.168C296.246 387.57 296.402 387.955 296.681 388.244C296.96 388.533 297.34 388.703 297.741 388.717C298.142 388.703 298.522 388.533 298.801 388.244C299.08 387.955 299.236 387.57 299.236 387.168C299.236 386.767 299.08 386.381 298.801 386.092C298.522 385.803 298.142 385.634 297.741 385.619Z" fill="white"/>
<path d="M353.24 382.291C352.827 367.209 348.802 352.041 340.205 340.319C331.607 328.596 318.135 320.707 304.139 321.192C298.349 321.293 292.671 322.806 287.599 325.599C282.526 328.392 278.212 332.382 275.032 337.221C274.678 337.726 274.339 338.247 274.003 338.769C273.688 339.26 273.384 339.759 273.083 340.262C267.702 350.033 264.444 360.83 263.523 371.946C263.37 373.386 263.241 374.824 263.143 376.261C270.398 378.988 277.318 382.533 283.77 386.827C283.93 383.827 284.274 380.84 284.798 377.883C287.056 365.699 292.258 354.251 299.95 344.535C300.016 344.454 300.099 344.387 300.193 344.34C300.218 344.33 300.244 344.323 300.271 344.318C300.329 344.295 300.391 344.282 300.453 344.279C300.49 344.282 300.526 344.289 300.561 344.3C300.608 344.306 300.655 344.317 300.7 344.334C300.752 344.36 300.801 344.391 300.846 344.428C300.869 344.442 300.89 344.457 300.911 344.473C300.973 344.531 301.028 344.596 301.073 344.668C301.154 344.79 301.2 344.932 301.208 345.078C301.215 345.223 301.183 345.369 301.114 345.498C301.095 345.546 301.072 345.593 301.044 345.637C298.894 348.367 296.937 351.244 295.188 354.246C289.151 364.565 285.729 376.203 285.218 388.147C285.216 388.283 285.178 388.415 285.11 388.531C285.041 388.648 284.943 388.744 284.826 388.812C284.709 388.879 284.576 388.915 284.441 388.916C284.305 388.917 284.172 388.883 284.054 388.817C282.684 387.967 281.327 387.12 279.955 386.287C274.63 382.902 268.96 380.092 263.041 377.906C256.548 375.446 249.485 374.903 242.692 376.341C239.953 376.745 237.389 377.934 235.312 379.765C234.863 380.254 234.475 380.795 234.157 381.377C233.426 382.653 233.03 384.094 233.007 385.565C233.001 387.07 233.398 388.55 234.157 389.85C234.47 390.408 234.848 390.927 235.284 391.395C236.33 392.409 237.459 393.332 238.659 394.156C239.853 395.045 241.073 395.896 242.32 396.71C249.355 401.278 257.087 404.667 265.213 406.744C266.583 407.098 267.976 407.405 269.367 407.691C271.841 408.203 274.339 408.587 276.852 408.843C278.008 408.957 279.178 409.025 280.348 409.094C285.368 409.431 290.411 409.177 295.371 408.338C298.562 407.85 301.629 406.749 304.402 405.096C306.948 403.39 309.1 401.157 310.71 398.549C314.199 392.929 316.985 386.902 319.004 380.602C321.205 374.187 322.754 367.566 323.626 360.84C323.648 360.696 323.708 360.561 323.8 360.449C323.896 360.329 324.022 360.237 324.165 360.181C324.307 360.125 324.462 360.108 324.614 360.13C324.648 360.133 324.682 360.138 324.716 360.146C324.754 360.156 324.791 360.171 324.827 360.189C324.871 360.208 324.912 360.232 324.95 360.261C324.976 360.28 325.001 360.301 325.023 360.324C325.061 360.367 325.092 360.417 325.115 360.47C325.127 360.496 325.14 360.515 325.15 360.543C325.178 360.641 325.186 360.744 325.173 360.846C324.952 362.554 324.698 364.256 324.391 365.953C323.124 373.034 321.112 379.962 318.386 386.619C317.089 389.818 315.625 392.947 314.001 395.994C312.558 398.847 310.701 401.47 308.489 403.779C303.697 408.54 296.99 409.96 290.488 410.506C287.913 410.705 285.33 410.771 282.749 410.702C278.84 410.629 274.942 410.264 271.087 409.608C269.567 409.346 268.06 409.021 266.56 408.663C266.278 408.692 265.998 408.718 265.716 408.749C267.88 417.147 271.623 425.618 279.022 430.619C281.29 432.108 283.759 433.267 286.353 434.063C292.037 435.652 297.889 436.562 303.787 436.773C311.359 437.602 319.001 437.558 326.563 436.643C328.877 436.28 331.157 435.725 333.38 434.986C333.902 434.809 334.418 434.62 334.929 434.419C338.173 433.311 341.09 431.414 343.418 428.898C345.745 426.382 347.41 423.326 348.262 420.006C351.698 407.733 353.374 395.035 353.24 382.291ZM281.951 369.291C281.55 369.277 281.169 369.107 280.891 368.818C280.612 368.53 280.456 368.144 280.456 367.742C280.456 367.341 280.612 366.955 280.891 366.666C281.169 366.377 281.55 366.208 281.951 366.194C282.352 366.208 282.732 366.377 283.011 366.666C283.29 366.955 283.445 367.341 283.445 367.742C283.445 368.144 283.29 368.53 283.011 368.818C282.732 369.107 282.352 369.277 281.951 369.291ZM287.414 342.579C287.013 342.564 286.632 342.395 286.354 342.106C286.075 341.817 285.919 341.431 285.919 341.03C285.919 340.628 286.075 340.243 286.354 339.954C286.632 339.665 287.013 339.495 287.414 339.481C287.815 339.495 288.195 339.665 288.474 339.954C288.753 340.243 288.908 340.628 288.908 341.03C288.908 341.431 288.753 341.817 288.474 342.106C288.195 342.395 287.815 342.564 287.414 342.579ZM317.155 357.148C316.887 357.143 316.624 357.069 316.394 356.931C316.164 356.793 315.973 356.597 315.843 356.363C315.712 356.128 315.645 355.863 315.649 355.595C315.652 355.327 315.727 355.064 315.864 354.833C315.893 354.774 315.926 354.717 315.962 354.661C316.013 354.591 316.07 354.525 316.134 354.465C316.264 354.352 316.407 354.256 316.56 354.178C316.746 354.1 316.946 354.059 317.147 354.056C317.353 354.057 317.557 354.099 317.746 354.18C317.796 354.202 317.844 354.228 317.891 354.258C318.003 354.317 318.105 354.394 318.194 354.485C318.322 354.606 318.422 354.756 318.484 354.921C318.507 354.976 318.538 355.025 318.558 355.082C318.598 355.22 318.621 355.364 318.627 355.508C318.631 355.639 318.621 355.771 318.595 355.9C318.595 355.937 318.595 355.972 318.578 356.009C318.547 356.132 318.503 356.251 318.445 356.363L318.403 356.434C318.282 356.656 318.102 356.84 317.883 356.966C317.664 357.092 317.414 357.155 317.161 357.148H317.155ZM321.417 340.759C321.177 340.759 320.942 340.702 320.729 340.593C320.516 340.483 320.332 340.325 320.193 340.13C320.054 339.935 319.963 339.711 319.928 339.474C319.893 339.237 319.915 338.995 319.992 338.769C320.071 338.451 320.254 338.168 320.512 337.966C320.77 337.764 321.089 337.654 321.417 337.654C321.745 337.654 322.063 337.764 322.321 337.966C322.579 338.168 322.762 338.451 322.841 338.769C322.918 338.995 322.94 339.237 322.905 339.474C322.871 339.711 322.78 339.935 322.64 340.13C322.501 340.325 322.317 340.483 322.105 340.593C321.892 340.702 321.656 340.759 321.417 340.759ZM330.523 399.036C330.122 399.022 329.742 398.853 329.463 398.564C329.184 398.275 329.028 397.889 329.028 397.488C329.028 397.086 329.184 396.7 329.463 396.411C329.742 396.123 330.122 395.953 330.523 395.939C330.924 395.954 331.304 396.124 331.582 396.413C331.86 396.703 332.016 397.089 332.015 397.49C332.014 397.892 331.857 398.277 331.578 398.566C331.299 398.854 330.918 399.023 330.517 399.036H330.523ZM334.939 378.362C334.884 378.376 334.828 378.388 334.771 378.395C334.47 378.408 334.173 378.323 333.925 378.153C333.676 377.984 333.488 377.739 333.39 377.454C333.247 377.062 333.247 376.633 333.39 376.241C333.488 375.957 333.676 375.711 333.925 375.542C334.173 375.372 334.47 375.286 334.771 375.298C334.828 375.306 334.884 375.318 334.939 375.333C335.303 375.386 335.636 375.569 335.876 375.848C336.117 376.126 336.249 376.482 336.248 376.85C336.247 377.218 336.114 377.574 335.873 377.851C335.631 378.129 335.298 378.31 334.933 378.362H334.939ZM339.021 348.65C338.62 348.636 338.24 348.466 337.961 348.178C337.682 347.889 337.526 347.503 337.526 347.101C337.526 346.7 337.682 346.314 337.961 346.025C338.24 345.736 338.62 345.567 339.021 345.553C339.422 345.568 339.802 345.738 340.08 346.027C340.358 346.317 340.513 346.703 340.513 347.104C340.512 347.506 340.355 347.891 340.076 348.18C339.797 348.468 339.416 348.637 339.015 348.65H339.021ZM342.664 409.964C342.253 409.964 341.859 409.801 341.568 409.51C341.278 409.22 341.114 408.826 341.114 408.415C341.114 408.004 341.278 407.609 341.568 407.319C341.859 407.028 342.253 406.865 342.664 406.865C343.075 406.866 343.469 407.03 343.759 407.321C344.049 407.612 344.212 408.006 344.211 408.417C344.21 408.828 344.046 409.222 343.755 409.512C343.464 409.802 343.069 409.965 342.658 409.964H342.664ZM344.484 382.039C344.083 382.024 343.703 381.855 343.424 381.566C343.145 381.277 342.989 380.891 342.989 380.49C342.989 380.089 343.145 379.703 343.424 379.414C343.703 379.125 344.083 378.956 344.484 378.941C344.885 378.956 345.265 379.126 345.543 379.416C345.821 379.705 345.976 380.091 345.976 380.493C345.975 380.894 345.818 381.28 345.539 381.568C345.26 381.857 344.879 382.025 344.478 382.039H344.484Z" fill="#F9D476"/>
<path d="M260.94 429.012C250.521 434.064 241.27 442.329 238.024 452.909C235.406 461.448 236.889 470.543 238.667 479.23C240.698 489.162 243.089 499.024 245.478 508.882C246.2 512.905 247.659 516.76 249.783 520.252C250.933 522.031 252.515 523.49 254.381 524.493C256.247 525.496 258.336 526.01 260.455 525.987C268.086 525.474 271.827 516.986 273.13 509.881C275.918 494.677 275.603 479.067 272.203 463.988C291.096 462.558 309.524 457.434 326.443 448.906C334.098 445.03 342.108 439.404 343.093 431.296C344.22 422.007 334.914 414.02 325.146 412.453C315.378 410.886 271.361 423.962 260.94 429.012Z" fill="#74A3D7"/>
<path d="M261.977 280.253C258.868 278.601 254.532 277.557 251.922 280.677C251.286 281.437 252.376 282.538 253.017 281.773C255.17 279.208 258.676 280.251 261.196 281.589C262.077 282.057 262.86 280.72 261.977 280.253Z" fill="black"/>
<path d="M281.364 282.619C280.436 282.961 280.837 284.458 281.775 284.111C283.199 283.553 284.766 283.469 286.242 283.873C287.718 284.276 289.024 285.145 289.967 286.35C290.568 287.133 291.912 286.35 291.304 285.567C290.187 284.069 288.616 282.972 286.824 282.44C285.032 281.909 283.117 281.971 281.364 282.619Z" fill="black"/>
<path d="M271.647 300.176C272.592 300.497 272.999 299.002 272.058 298.683C270.297 298.096 268.448 298.372 266.677 297.924C265.97 297.78 265.317 297.441 264.793 296.945C264.501 296.545 264.306 296.082 264.222 295.594C264.139 295.105 264.17 294.604 264.313 294.13C264.889 290.021 265.517 285.912 266.119 281.803C266.262 280.824 264.771 280.405 264.626 281.39L263.568 288.606L263.051 292.128C262.813 293.255 262.682 294.402 262.66 295.554C262.712 296.361 263.004 297.134 263.5 297.773C263.995 298.412 264.67 298.889 265.438 299.141C267.43 299.947 269.633 299.505 271.647 300.176Z" fill="black"/>
<path d="M281.992 301.037C276.941 303.702 271.067 304.352 265.556 302.854C265.369 302.831 265.18 302.875 265.024 302.98C264.868 303.084 264.754 303.241 264.704 303.422C264.654 303.603 264.67 303.797 264.751 303.966C264.832 304.136 264.971 304.271 265.143 304.347C270.719 305.845 276.648 305.296 281.855 302.801C282.722 307.439 277.746 310.646 273.654 311.401C272.676 311.581 273.091 313.074 274.067 312.894C279.256 311.937 285.121 307.415 283.119 301.5C283.086 301.388 283.028 301.285 282.949 301.198C282.871 301.111 282.774 301.043 282.666 300.999C282.558 300.954 282.441 300.935 282.325 300.941C282.208 300.948 282.094 300.98 281.992 301.037Z" fill="black"/>
<path d="M260.553 284.832C259.953 284.856 259.386 285.112 258.971 285.545C258.555 285.977 258.323 286.554 258.323 287.154C258.323 287.754 258.555 288.331 258.971 288.764C259.386 289.197 259.953 289.452 260.553 289.477C261.152 289.452 261.719 289.197 262.134 288.764C262.55 288.331 262.782 287.754 262.782 287.154C262.782 286.554 262.55 285.977 262.134 285.545C261.719 285.112 261.152 284.856 260.553 284.832Z" fill="black"/>
<path d="M286.277 286.88C285.677 286.905 285.111 287.16 284.695 287.593C284.28 288.026 284.048 288.603 284.048 289.203C284.048 289.803 284.28 290.379 284.695 290.812C285.111 291.245 285.677 291.501 286.277 291.525C286.876 291.501 287.443 291.245 287.859 290.812C288.274 290.379 288.506 289.803 288.506 289.203C288.506 288.603 288.274 288.026 287.859 287.593C287.443 287.16 286.876 286.905 286.277 286.88Z" fill="black"/>
<path d="M398.37 331.13V267.499C398.37 265.629 398.4 263.758 398.37 261.888C398.262 260.838 397.823 259.85 397.116 259.066C390.366 248.794 383.616 238.521 376.867 228.249L356.617 197.431L355.467 195.682L354.799 194.664V137.058H329.302V155.854L296.385 105.763L283.986 86.8931C283.916 86.7785 283.818 86.6838 283.701 86.6181C283.584 86.5524 283.452 86.5179 283.317 86.5179C283.183 86.5179 283.051 86.5524 282.934 86.6181C282.817 86.6838 282.719 86.7785 282.649 86.8931C278.227 93.6214 273.806 100.35 269.385 107.078C259.038 122.828 248.69 138.577 238.341 154.326L202.741 208.504L175.504 249.956C173.362 253.217 171.219 256.478 169.075 259.739C168.42 260.658 168.131 261.787 168.263 262.907V504.33C168.263 504.538 168.345 504.737 168.492 504.884C168.639 505.031 168.838 505.113 169.045 505.113H388.294C391.26 505.265 394.232 505.265 397.198 505.113C397.329 505.106 397.459 505.106 397.59 505.113C397.797 505.113 397.996 505.031 398.143 504.884C398.29 504.737 398.372 504.538 398.372 504.33V331.13H398.37ZM396.823 264.265V498.04C396.726 499.877 396.726 501.718 396.823 503.555H172.514C171.619 503.478 170.72 503.46 169.822 503.501V267.351C169.686 265.397 169.678 263.436 169.798 261.481C169.826 261.422 169.86 261.367 169.9 261.316C170.129 261.019 170.319 260.678 170.524 260.365C171.38 259.061 172.236 257.756 173.092 256.452L196.405 220.97L231.314 167.84C242.356 151.039 253.397 134.236 264.437 117.431L283.121 88.9965L283.316 88.6834L312.841 133.614L336.998 170.38L354.13 196.455C359.195 204.164 364.26 211.873 369.326 219.582C377.078 231.377 384.829 243.173 392.579 254.969L395.819 259.9C396.073 260.344 396.355 260.773 396.662 261.183C396.743 261.281 396.809 261.389 396.858 261.506C396.892 262.426 396.881 263.346 396.823 264.265Z" fill="#5B5B5B"/>
<path d="M181.619 242.687V501.296C181.647 501.481 181.74 501.65 181.882 501.772C182.024 501.894 182.205 501.961 182.393 501.961C182.58 501.961 182.761 501.894 182.903 501.772C183.045 501.65 183.138 501.481 183.166 501.296V242.687C183.138 242.502 183.045 242.333 182.903 242.211C182.761 242.088 182.58 242.021 182.393 242.021C182.205 242.021 182.024 242.088 181.882 242.211C181.74 242.333 181.647 242.502 181.619 242.687Z" fill="#5B5B5B"/>
<path d="M198.01 225.689V497.046C198.038 497.231 198.131 497.4 198.273 497.522C198.415 497.644 198.596 497.711 198.784 497.711C198.971 497.711 199.152 497.644 199.294 497.522C199.436 497.4 199.529 497.231 199.557 497.046V225.689C199.529 225.504 199.436 225.335 199.294 225.213C199.152 225.091 198.971 225.024 198.784 225.024C198.596 225.024 198.415 225.091 198.273 225.213C198.131 225.335 198.038 225.504 198.01 225.689Z" fill="#5B5B5B"/>
<path d="M216.829 208.083V270.004C216.857 270.189 216.95 270.358 217.092 270.48C217.234 270.602 217.415 270.669 217.603 270.669C217.79 270.669 217.971 270.602 218.113 270.48C218.255 270.358 218.349 270.189 218.377 270.004V208.083C218.349 207.898 218.255 207.729 218.113 207.607C217.971 207.485 217.79 207.418 217.603 207.418C217.415 207.418 217.234 207.485 217.092 207.607C216.95 207.729 216.857 207.898 216.829 208.083Z" fill="#5B5B5B"/>
<path d="M216.22 292.466V345.57C216.247 345.757 216.34 345.928 216.482 346.051C216.625 346.175 216.807 346.242 216.995 346.242C217.184 346.242 217.366 346.175 217.508 346.051C217.65 345.928 217.743 345.757 217.77 345.57V342.856C217.743 342.67 217.65 342.499 217.508 342.376C217.366 342.252 217.184 342.184 216.995 342.184C216.807 342.184 216.625 342.252 216.482 342.376C216.34 342.499 216.247 342.67 216.22 342.856V345.57C216.247 345.757 216.34 345.928 216.482 346.051C216.625 346.175 216.807 346.242 216.995 346.242C217.184 346.242 217.366 346.175 217.508 346.051C217.65 345.928 217.743 345.757 217.77 345.57V292.466C217.743 292.28 217.65 292.109 217.508 291.986C217.366 291.862 217.184 291.794 216.995 291.794C216.807 291.794 216.625 291.862 216.482 291.986C216.34 292.109 216.247 292.28 216.22 292.466Z" fill="#5B5B5B"/>
<path d="M214.401 393.845V496.429C214.429 496.615 214.522 496.784 214.664 496.906C214.806 497.028 214.987 497.095 215.175 497.095C215.362 497.095 215.543 497.028 215.685 496.906C215.827 496.784 215.92 496.615 215.948 496.429V393.845C215.92 393.66 215.827 393.491 215.685 393.369C215.543 393.247 215.362 393.18 215.175 393.18C214.987 393.18 214.806 393.247 214.664 393.369C214.522 393.491 214.429 393.66 214.401 393.845Z" fill="#5B5B5B"/>
<path d="M235.04 172.266V219.011C235.066 219.198 235.159 219.368 235.302 219.492C235.444 219.615 235.626 219.683 235.814 219.683C236.003 219.683 236.185 219.615 236.327 219.492C236.47 219.368 236.563 219.198 236.589 219.011V172.266C236.563 172.08 236.47 171.909 236.327 171.786C236.185 171.662 236.003 171.594 235.814 171.594C235.626 171.594 235.444 171.662 235.302 171.786C235.159 171.909 235.066 172.08 235.04 172.266Z" fill="#5B5B5B"/>
<path d="M235.04 241.476V327.072C235.066 327.259 235.159 327.429 235.302 327.553C235.444 327.676 235.626 327.744 235.814 327.744C236.003 327.744 236.185 327.676 236.327 327.553C236.47 327.429 236.563 327.259 236.589 327.072V241.476C236.563 241.289 236.47 241.118 236.327 240.995C236.185 240.871 236.003 240.803 235.814 240.803C235.626 240.803 235.444 240.871 235.302 240.995C235.159 241.118 235.066 241.289 235.04 241.476Z" fill="#5B5B5B"/>
<path d="M255.673 143.128V234.794C255.701 234.979 255.794 235.148 255.936 235.27C256.078 235.392 256.259 235.459 256.446 235.459C256.634 235.459 256.815 235.392 256.957 235.27C257.099 235.148 257.192 234.979 257.22 234.794V143.128C257.192 142.943 257.099 142.774 256.957 142.651C256.815 142.529 256.634 142.462 256.446 142.462C256.259 142.462 256.078 142.529 255.936 142.651C255.794 142.774 255.701 142.943 255.673 143.128Z" fill="#5B5B5B"/>
<path d="M279.348 109.133V158.306C279.376 158.491 279.47 158.66 279.612 158.782C279.754 158.904 279.935 158.971 280.122 158.971C280.309 158.971 280.491 158.904 280.633 158.782C280.775 158.66 280.868 158.491 280.896 158.306V109.133C280.868 108.947 280.775 108.778 280.633 108.656C280.491 108.534 280.309 108.467 280.122 108.467C279.935 108.467 279.754 108.534 279.612 108.656C279.47 108.778 279.376 108.947 279.348 109.133Z" fill="#5B5B5B"/>
<path d="M299.995 125.524V161.947C300.022 162.133 300.115 162.304 300.257 162.428C300.399 162.551 300.581 162.619 300.77 162.619C300.958 162.619 301.141 162.551 301.283 162.428C301.425 162.304 301.518 162.133 301.545 161.947V125.524C301.518 125.337 301.425 125.166 301.283 125.043C301.141 124.919 300.958 124.851 300.77 124.851C300.581 124.851 300.399 124.919 300.257 125.043C300.115 125.166 300.022 125.337 299.995 125.524Z" fill="#5B5B5B"/>
<path d="M320.029 166.197V206.256C320.057 206.441 320.151 206.61 320.293 206.732C320.435 206.854 320.616 206.921 320.803 206.921C320.991 206.921 321.172 206.854 321.314 206.732C321.456 206.61 321.549 206.441 321.577 206.256V166.197C321.549 166.012 321.456 165.843 321.314 165.721C321.172 165.598 320.991 165.531 320.803 165.531C320.616 165.531 320.435 165.598 320.293 165.721C320.151 165.843 320.057 166.012 320.029 166.197Z" fill="#5B5B5B"/>
<path d="M321.243 265.754V314.32C321.269 314.507 321.362 314.678 321.504 314.801C321.647 314.925 321.829 314.993 322.017 314.993C322.206 314.993 322.388 314.925 322.53 314.801C322.673 314.678 322.766 314.507 322.792 314.32V265.754C322.766 265.567 322.673 265.397 322.53 265.273C322.388 265.15 322.206 265.082 322.017 265.082C321.829 265.082 321.647 265.15 321.504 265.273C321.362 265.397 321.269 265.567 321.243 265.754Z" fill="#5B5B5B"/>
<path d="M350.375 262.719V341.031C350.402 341.217 350.495 341.388 350.637 341.512C350.78 341.635 350.962 341.703 351.15 341.703C351.339 341.703 351.521 341.635 351.663 341.512C351.805 341.388 351.898 341.217 351.925 341.031V262.719C351.898 262.533 351.805 262.362 351.663 262.238C351.521 262.115 351.339 262.047 351.15 262.047C350.962 262.047 350.78 262.115 350.637 262.238C350.495 262.362 350.402 262.533 350.375 262.719Z" fill="#5B5B5B"/>
<path d="M374.051 270.611V322.818C374.078 323.005 374.171 323.176 374.313 323.299C374.455 323.423 374.637 323.491 374.826 323.491C375.014 323.491 375.196 323.423 375.339 323.299C375.481 323.176 375.574 323.005 375.601 322.818V270.611C375.574 270.424 375.481 270.253 375.339 270.13C375.196 270.006 375.014 269.938 374.826 269.938C374.637 269.938 374.455 270.006 374.313 270.13C374.171 270.253 374.078 270.424 374.051 270.611Z" fill="#5B5B5B"/>
<path d="M374.051 337.388V497.051C374.078 497.238 374.171 497.409 374.313 497.532C374.455 497.656 374.637 497.724 374.826 497.724C375.014 497.724 375.196 497.656 375.339 497.532C375.481 497.409 375.574 497.238 375.601 497.051V337.388C375.574 337.201 375.481 337.03 375.339 336.907C375.196 336.783 375.014 336.715 374.826 336.715C374.637 336.715 374.455 336.783 374.313 336.907C374.171 337.03 374.078 337.201 374.051 337.388Z" fill="#5B5B5B"/>
<path d="M345.525 442.41V503.117C345.551 503.304 345.644 503.475 345.787 503.598C345.929 503.722 346.111 503.79 346.3 503.79C346.488 503.79 346.67 503.722 346.813 503.598C346.955 503.475 347.048 503.304 347.074 503.117V442.41C347.048 442.223 346.955 442.053 346.813 441.929C346.67 441.806 346.488 441.738 346.3 441.738C346.111 441.738 345.929 441.806 345.787 441.929C345.644 442.053 345.551 442.223 345.525 442.41Z" fill="#5B5B5B"/>
<path d="M317.601 472.167V501.908C317.629 502.093 317.723 502.262 317.865 502.384C318.007 502.506 318.188 502.573 318.375 502.573C318.562 502.573 318.743 502.506 318.885 502.384C319.027 502.262 319.121 502.093 319.149 501.908V472.167C319.121 471.981 319.027 471.812 318.885 471.69C318.743 471.568 318.562 471.501 318.375 471.501C318.188 471.501 318.007 471.568 317.865 471.69C317.723 471.812 317.629 471.981 317.601 472.167Z" fill="#5B5B5B"/>
<path d="M289.676 477.013V502.509C289.702 502.695 289.795 502.866 289.938 502.989C290.08 503.113 290.262 503.181 290.45 503.181C290.639 503.181 290.821 503.113 290.963 502.989C291.106 502.866 291.199 502.695 291.225 502.509V477.013C291.199 476.827 291.106 476.656 290.963 476.533C290.821 476.409 290.639 476.341 290.45 476.341C290.262 476.341 290.08 476.409 289.938 476.533C289.795 476.656 289.702 476.827 289.676 477.013Z" fill="#5B5B5B"/>
</svg>
